<svg xmlns="http://www.w3.org/2000/svg" width="110" height="32" fill="none"><g fill="#000" clip-path="url(#a)"><path d="M10.227 2.968A44.34 44.34 0 0 1 8.091.198a.047.047 0 0 0-.068 0 44.33 44.33 0 0 1-2.136 2.77c-9.003 11.482 1.417 19.23 1.417 19.23l.088.058c.077 1.196.272 2.917.272 2.917h.777s.194-1.711.272-2.917l.087-.068c.01.01 10.43-7.738 1.427-19.22ZM8.052 22.023s-.466-.399-.592-.603v-.02L8.023 8.9c0-.04.058-.04.058 0L8.645 21.4v.02c-.127.203-.593.602-.593.602ZM27.552 19.472 23.21 8.866l-.01-.029h-3.378v.713h.545a.619.619 0 0 1 .613.625l-.097 10.674a.623.623 0 0 1-.604.615l-.554.01v.703h3.29v-.703l-.34-.01a.623.623 0 0 1-.604-.615V10.79l4.732 11.387a.432.432 0 0 0 .399.273.432.432 0 0 0 .399-.273l4.625-11.133.068 9.805a.626.626 0 0 1-.613.625h-.351v.703h3.855v-.703h-.525a.631.631 0 0 1-.614-.616l-.029-10.673c0-.342.273-.616.604-.625l.564-.01v-.713h-3.29l-4.343 10.635ZM57.83 21.288a.59.59 0 0 1-.166-.43v-5.244c0-.998-.293-1.78-.879-2.338-.575-.557-1.376-.841-2.372-.841-1.395 0-2.498.567-3.27 1.682-.01.02-.039.03-.068.03-.03 0-.049-.02-.049-.05l-.361-1.398h-.605l-1.552.89v.49h.4c.185 0 .342.048.45.146.106.098.165.245.165.45v6.173a.591.591 0 0 1-.166.43.589.589 0 0 1-.43.167h-.39v.714h3.573v-.714h-.39a.588.588 0 0 1-.43-.167.591.591 0 0 1-.166-.43v-4.09c0-.518.117-1.036.332-1.545.224-.499.556-.92.995-1.242.44-.323.967-.48 1.572-.48.683 0 1.2.216 1.523.646.322.43.488.988.488 1.653v5.048a.591.591 0 0 1-.166.43.588.588 0 0 1-.43.167h-.39v.714h3.572v-.714h-.39a.491.491 0 0 1-.4-.147ZM90.47 9.636a6.907 6.907 0 0 0-3.282-.799h-4.647v.71h.455c.174 0 .33.07.484.225a.688.688 0 0 1 .223.487v10.478c0 .175-.078.34-.223.487a.68.68 0 0 1-.484.224h-.455v.71h4.647c1.191 0 2.295-.272 3.282-.798a5.995 5.995 0 0 0 2.372-2.298c.581-.993.881-2.191.881-3.555 0-1.363-.3-2.55-.88-3.554a6.042 6.042 0 0 0-2.373-2.317Zm1.385 5.852c0 1.247-.223 2.298-.659 3.145-.435.848-1.016 1.48-1.733 1.89a4.7 4.7 0 0 1-2.362.613h-.94c-.173 0-.328-.068-.483-.224a.688.688 0 0 1-.223-.487v-9.884c0-.175.068-.33.223-.487a.68.68 0 0 1 .484-.224h.94c.851 0 1.645.205 2.361.614.717.409 1.298 1.042 1.733 1.889.436.857.659 1.918.659 3.155ZM104.707 16.199c-.43-.497-1.259-.915-2.234-1.14 1.346-.671 2.039-1.616 2.039-2.833 0-.662-.175-1.256-.527-1.763-.351-.506-.849-.915-1.483-1.198-.635-.282-1.377-.428-2.216-.428h-5.26v.71h.42c.175 0 .33.07.487.225a.685.685 0 0 1 .225.487v10.478c0 .175-.079.34-.225.487a.688.688 0 0 1-.488.224h-.459v.71h5.71c.868 0 1.678-.146 2.411-.438.732-.292 1.317-.72 1.737-1.285.429-.565.644-1.256.644-2.055-.01-.857-.264-1.587-.781-2.181Zm-6.549 4.723a.685.685 0 0 1-.224-.487v-4.703h2.713c.956 0 1.689.243 2.196.73.508.487.761 1.12.761 1.899 0 .467-.117.925-.331 1.344a2.56 2.56 0 0 1-1.006 1.032c-.439.263-.986.4-1.62.4h-2c-.176 0-.333-.069-.489-.215Zm-.214-6.194v-4.177c0-.175.068-.331.224-.487a.689.689 0 0 1 .488-.224h1.288c.927 0 1.611.234 2.041.682.428.457.643 1.042.643 1.762 0 .74-.205 1.334-.605 1.782-.4.438-1.005.662-1.805.662h-2.274ZM44.228 13.056a5.108 5.108 0 0 0-2.48-.621c-.9 0-1.743.204-2.48.621-.745.408-1.336 1-1.772 1.747-.435.747-.658 1.62-.658 2.59 0 .971.223 1.845.658 2.592a4.578 4.578 0 0 0 1.773 1.747 5.11 5.11 0 0 0 2.48.621c.9 0 1.743-.204 2.479-.621.746-.408 1.337-1 1.772-1.747.436-.747.659-1.62.659-2.591 0-.97-.223-1.844-.659-2.591a4.577 4.577 0 0 0-1.772-1.747Zm.717 4.338c0 1.194-.291 2.164-.872 2.863-.572.698-1.356 1.058-2.325 1.058-.968 0-1.753-.36-2.324-1.058-.581-.699-.872-1.67-.872-2.863 0-1.194.29-2.164.872-2.863.571-.699 1.356-1.058 2.324-1.058.969 0 1.754.36 2.325 1.058.581.699.872 1.67.872 2.863ZM78.554 13.056a5.108 5.108 0 0 0-2.48-.621c-.9 0-1.743.204-2.479.621-.746.408-1.337 1-1.772 1.747-.436.747-.659 1.62-.659 2.59 0 .971.223 1.845.659 2.592a4.578 4.578 0 0 0 1.772 1.747 5.11 5.11 0 0 0 2.48.621c.9 0 1.743-.204 2.479-.621a4.58 4.58 0 0 0 1.772-1.747c.436-.747.66-1.62.66-2.591 0-.97-.224-1.844-.66-2.591a4.645 4.645 0 0 0-1.772-1.747Zm.717 4.338c0 1.194-.29 2.164-.872 2.863-.571.698-1.356 1.058-2.324 1.058-.969 0-1.754-.36-2.325-1.058-.581-.699-.872-1.67-.872-2.863 0-1.203.29-2.164.872-2.863.572-.699 1.356-1.058 2.325-1.058.968 0 1.753.36 2.324 1.058.572.699.872 1.67.872 2.863ZM64.712 12.435c-.78 0-1.493.165-2.136.497-.644.332-1.151.78-1.512 1.355-.361.566-.547 1.2-.547 1.872 0 .605.137 1.16.42 1.658.273.477.644.877 1.112 1.208l-1.395 1.892a.765.765 0 0 0 .614 1.218h.4c-.39.264-.702.576-.916.946-.254.42-.38.858-.38 1.306 0 .839.37 1.531 1.101 2.048.722.517 1.737.78 3.014.78.888 0 1.737-.146 2.507-.43.78-.282 1.415-.701 1.883-1.247.478-.546.722-1.209.722-1.97 0-.799-.293-1.364-.976-1.91-.585-.459-1.502-.702-2.643-.702h-3.902c-.01 0-.02-.01-.02-.01s-.01-.02 0-.03l1.015-1.364c.273.127.527.205.751.253.234.05.498.069.79.069.82 0 1.56-.166 2.205-.498.643-.331 1.16-.78 1.531-1.355.37-.565.556-1.199.556-1.872 0-.721-.351-2.037-1.307-2.71 0-.01.01-.01.01-.01l2.097.234v-.965H66.35a5.439 5.439 0 0 0-1.638-.263Zm1.17 6.103a2.52 2.52 0 0 1-1.17.302c-.654 0-1.23-.234-1.717-.692-.488-.458-.732-1.131-.732-1.989 0-.858.244-1.53.732-1.989a2.437 2.437 0 0 1 1.717-.692c.41 0 .8.098 1.17.302.37.195.673.498.917.897.234.4.361.897.361 1.482 0 .595-.117 1.092-.36 1.482a2.31 2.31 0 0 1-.918.897Zm-2.643 3.588h2.643c.732 0 1.2.146 1.512.458.312.312.468.731.468 1.219 0 .711-.282 1.296-.848 1.735-.566.439-1.327.663-2.263.663-.82 0-1.503-.185-2-.536-.497-.351-.751-.887-.751-1.57 0-.429.117-.829.351-1.18.234-.35.517-.604.888-.79ZM107.467 21.996a1.254 1.254 0 0 1-.453-.44 1.24 1.24 0 0 1-.164-.613c0-.22.058-.43.164-.613.106-.191.261-.334.453-.44.194-.105.406-.163.647-.163s.453.058.646.163c.193.105.338.259.453.44a1.215 1.215 0 0 1 0 1.225 1.11 1.11 0 0 1-.453.44 1.321 1.321 0 0 1-.646.163c-.232 0-.453-.047-.647-.162Zm1.187-.134c.164-.086.28-.22.377-.373.086-.163.135-.345.135-.546 0-.201-.049-.383-.135-.546a.89.89 0 0 0-.377-.373 1.13 1.13 0 0 0-.54-.134 1.13 1.13 0 0 0-.541.134c-.163.086-.28.22-.376.373a1.141 1.141 0 0 0-.135.546c0 .201.048.383.135.545a.887.887 0 0 0 .376.374c.164.086.338.134.541.134a1.1 1.1 0 0 0 .54-.134Zm-1.061-.335v-.086l.019-.01h.058c.019 0 .038-.01.048-.019.019-.02.019-.029.019-.048v-.89a.07.07 0 0 0-.019-.048c-.02-.019-.029-.019-.048-.019h-.058l-.019-.01v-.086l.019-.01h.502a.52.52 0 0 1 .337.097.311.311 0 0 1 .126.268.295.295 0 0 1-.097.23.381.381 0 0 1-.241.114l.116.038.222.354c.019.03.038.039.068.039h.057l.01.01v.085l-.01.01h-.299l-.019-.01-.309-.517h-.077v.345c0 .02.01.038.019.048.02.02.03.02.048.02h.058l.02.009v.086l-.02.01h-.511l-.019-.01Zm.492-.632c.077 0 .144-.019.183-.067a.263.263 0 0 0 .067-.182.277.277 0 0 0-.057-.181c-.039-.048-.097-.067-.164-.067h-.039c-.02 0-.038.009-.048.019-.019.019-.019.028-.019.047v.431h.077Z"/></g><defs><clipPath id="a"><path fill="#fff" d="M1.957 0h107.686v27.054H1.957z"/></clipPath></defs></svg>