<svg xmlns="http://www.w3.org/2000/svg" width="62" height="32" fill="none"><path fill="#000" d="M21.241 20.959h-2.575v10.085h2.575V20.96ZM41.735 23.855c-.644-.375-1.395-.536-2.146-.536-1.663 0-2.79 1.126-2.79 2.682 0 .751.269 1.449.805 1.985a2.509 2.509 0 0 0 1.985.751c.751 0 1.502-.16 2.146-.536v2.736c-.751.214-1.556.375-2.307.375-2.843 0-5.365-1.985-5.365-5.257 0-3.005 2.253-5.204 5.365-5.204.805 0 1.556.107 2.307.375v2.63ZM15.125 23.855c-.644-.375-1.395-.536-2.146-.536-1.663 0-2.79 1.126-2.79 2.682 0 .751.269 1.449.805 1.985a2.509 2.509 0 0 0 1.985.751c.751 0 1.502-.16 2.146-.536v2.736c-.751.214-1.556.375-2.307.375-2.843 0-5.365-1.985-5.365-5.257 0-3.005 2.254-5.204 5.365-5.204.805 0 1.556.107 2.307.375v2.63ZM55.094 26.002c.053 2.146-1.234 4.13-3.22 4.99a5.36 5.36 0 0 1-5.847-1.074 5.261 5.261 0 0 1-1.18-5.848 5.378 5.378 0 0 1 4.935-3.326c1.395-.053 2.79.483 3.756 1.502 1.02.966 1.556 2.307 1.556 3.756Zm-5.312-2.683a2.71 2.71 0 0 0-2.467 1.61c-.43 1.02-.215 2.146.536 2.897.751.75 1.931 1.02 2.897.59 1.02-.43 1.663-1.395 1.663-2.468 0-.697-.268-1.395-.75-1.878-.537-.482-1.181-.75-1.879-.75ZM30.845 23.212a12.735 12.735 0 0 0-1.985-.322c-1.02 0-1.556.322-1.556.804 0 .59.751.805 1.18.966l.752.215c1.663.536 2.414 1.663 2.414 2.897 0 2.521-2.253 3.38-4.185 3.38-.912 0-1.824-.108-2.736-.269v-2.36c.805.214 1.61.322 2.414.375 1.288 0 1.878-.375 1.878-.965 0-.537-.483-.805-1.127-1.02l-.697-.053c-1.395-.43-2.629-1.288-2.629-2.951 0-1.878 1.395-3.165 3.756-3.165.858 0 1.663.107 2.467.322l.054 2.146ZM11.693 6.58c0-.698-.59-1.288-1.287-1.288-.698 0-1.288.59-1.288 1.288v6.116c0 .697.59 1.287 1.287 1.287.698 0 1.288-.59 1.288-1.287V6.58ZM18.613 1.859c0-.697-.59-1.288-1.288-1.288-.697 0-1.287.59-1.287 1.288v13.412c0 .698.59 1.288 1.287 1.288.698 0 1.288-.59 1.288-1.288V1.86ZM25.588 6.58c0-.698-.59-1.288-1.288-1.288-.698 0-1.288.59-1.288 1.288v6.116c0 .697.59 1.287 1.288 1.287.697 0 1.288-.59 1.288-1.287V6.58ZM32.508 10.068c0-.698-.59-1.288-1.287-1.288-.698 0-1.288.59-1.288 1.288v2.628c0 .698.59 1.288 1.288 1.288.697 0 1.287-.59 1.287-1.288v-2.628ZM4.718 10.068c0-.698-.59-1.288-1.288-1.288-.697 0-1.287.59-1.287 1.288v2.628c0 .698.59 1.288 1.287 1.288.698 0 1.288-.59 1.288-1.288v-2.628ZM39.483 6.58c0-.698-.59-1.288-1.288-1.288-.697 0-1.288.59-1.288 1.288v6.116c0 .697.59 1.287 1.288 1.287.697 0 1.288-.59 1.288-1.287V6.58ZM46.457 1.859c0-.697-.59-1.288-1.288-1.288-.697 0-1.287.59-1.287 1.288v13.412c0 .698.59 1.288 1.287 1.288.698 0 1.288-.59 1.288-1.288V1.86ZM53.377 6.58c-.053-.644-.59-1.18-1.234-1.18s-1.234.536-1.287 1.18v6.116c.053.644.59 1.18 1.287 1.18.644 0 1.234-.536 1.288-1.18V6.58h-.054ZM60.352 10.068c0-.698-.59-1.288-1.287-1.288-.698 0-1.288.59-1.288 1.288v2.628c0 .698.59 1.288 1.288 1.288.697 0 1.287-.59 1.287-1.288v-2.628Z"/></svg>