<svg xmlns="http://www.w3.org/2000/svg" width="133" height="32" fill="none"><path fill="#000" d="M129.843 21.759h-17.101v-.58h17.101v.58Zm-8.522-3.246 1.623-1.566.638.638-1.739 1.45c-.116.173-.232.463-.348.637h-1.275a2.156 2.156 0 0 1 1.101-1.16Zm-5.448-9.855c-.058 0-1.334.348-1.334.348a8.15 8.15 0 0 0-.869.406c-.29.174-.58.464-.58.637l1.159.29c.16-.188.334-.362.522-.521l.29-.116.927-.986c.058-.058.058-.116-.144-.058h.029Zm7.825 3.13a25.918 25.918 0 0 1-1.971-2.434 7.023 7.023 0 0 0 .464-3.42 8.884 8.884 0 0 0-.812-1.218c-.116-.173-.637-.753-.869-.753-.058 0-.116 0-.116.058l.058.637a28.854 28.854 0 0 0-2.377 1.624c-.015.233.005.467.058.695.122.099.259.177.406.232a14.842 14.842 0 0 1 1.565-.29l-.985 1.45-1.16.81-1.391-.463c-.116 0-.174 0-.232.058l-1.043 1.102a.304.304 0 0 0-.116.231l-.058 1.218v.405c-.019.478.124.948.406 1.334l.637-.986a2.509 2.509 0 0 1-.289-.695v-1.044l.637-.463 1.739 1.217c.264.492.575.958.928 1.391a16.448 16.448 0 0 0 2.492 1.797c.074.454.191.9.348 1.333l2.087 2.145-1.217 1.565a1.52 1.52 0 0 0-.812 1.275h1.449l.174-.811 1.739-1.913c.116-.116.116-.174.058-.29l-.464-1.623c.441-.5.705-1.132.754-1.797 0-1.565-1.565-1.97-2.087-2.406v.03Zm2.609 2.551a7.691 7.691 0 0 0-.406-1.101s.058-.058.232 0c.174.058 1.043.695 1.043.695.464.638.754 3.42.754 4.406a5.077 5.077 0 0 1-1.392-.87l-.231-3.13Zm-44.403-.638c0-1.043-.348-1.855-1.217-1.855-.87 0-1.276.812-1.276 1.855V20.6h1.044v1.102H74.6v-1.102h1.102v-9.506H74.6V10.02h4.58v1.797h.057A3.346 3.346 0 0 1 82.31 9.79a2.939 2.939 0 0 1 3.072 2.434c.113.632.17 1.272.174 1.913v6.492h1.391v1.102h-5.101l.058-8.058m-23.708 0c0-1.043-.348-1.855-1.218-1.855s-1.275.812-1.275 1.855v6.898h1.043v1.102h-5.854V20.57h1.101v-9.477h-1.101V10.02h4.579v1.797h.058a3.345 3.345 0 0 1 3.072-2.028 2.939 2.939 0 0 1 3.072 2.434c.113.632.171 1.272.174 1.913v6.492h1.392v1.102h-5.101l.058-8.058Zm33.794-2.608V19.7a.694.694 0 0 0 .754.753c.236-.006.47-.044.695-.116v1.044a4.342 4.342 0 0 1-2.26.464c-1.797 0-2.899-.87-2.899-2.783v-7.97h-1.217v-.754c1.391-1.101 3.014-2.376 4.29-3.42h.695v3.101h1.768v1.044H91.99ZM18.894 3.963s2.84 2.84 4.116 4.29v1.1a9.066 9.066 0 0 0-6.029-2.376c-5.275 0-8.58 4-8.58 8.927s3.131 8.869 8.58 8.869a8.307 8.307 0 0 0 6.086-2.58v1.044c-1.623 2.26-4.637 3.71-8.405 3.71-6.724.058-11.361-4.811-11.361-11.014a11.21 11.21 0 0 1 11.361-11.13c1.439.005 2.867.24 4.232.696V3.963ZM72.86 18.628a3.118 3.118 0 0 1-2.55 1.102c-1.044 0-2.725-.58-2.783-3.304h6.26c0-.232.059-.638.059-.87 0-3.304-1.334-5.738-4.87-5.738s-5.333 2.724-5.333 6.086 1.797 6.029 5.333 6.029a4.787 4.787 0 0 0 4.58-2.725l-.696-.58Zm-5.39-3.362c0-3.072.231-4.231 1.274-4.231 1.044 0 1.276 1.101 1.334 4.231H67.47Zm-51.65.58c0-3.594.348-5.159 1.566-5.159 1.217 0 1.565 1.565 1.565 5.16 0 3.593-.348 5.158-1.565 5.158-1.218 0-1.565-1.565-1.565-5.159Zm-4.347.058c0 3.536 2.145 6.434 5.913 6.434 3.768 0 5.912-2.898 5.912-6.434s-2.144-6.463-5.912-6.463-5.913 2.898-5.913 6.434m20.057-2.203c0-1.043-.348-1.855-1.218-1.855s-1.275.812-1.275 1.855v6.898h1.014v1.102h-5.825V20.57h1.101v-9.477h-1.101V10.02h4.58v1.797h.057a3.346 3.346 0 0 1 3.072-2.028 2.94 2.94 0 0 1 3.073 2.434c.112.632.17 1.272.174 1.913v6.492h1.39v1.102h-5.1V13.7l.058-.029ZM44.805 6.89c0 1.044.928 1.74 2.26 1.74 1.334 0 2.262-.696 2.262-1.74 0-1.043-.928-1.739-2.261-1.739-1.333 0-2.26.754-2.26 1.74Zm-3.188 4.174V19.7a.697.697 0 0 0 .754.753c.236-.006.47-.044.695-.116v1.044a4.343 4.343 0 0 1-2.26.464c-1.798 0-2.899-.87-2.899-2.783v-7.97H36.69v-.754c1.39-1.101 3.014-2.376 4.29-3.42h.666v3.101h1.45v1.044h-1.48Zm68.401 9.564h1.449v1.102h-5.159V6.803h-1.275V5.702h5.014v14.955l-.029-.029Zm-9.912-4.695a1.109 1.109 0 0 0-.812-.232c-1.101 0-1.333 1.102-1.333 2.203 0 1.101.348 1.97 1.275 1.97a1.02 1.02 0 0 0 .87-.347v-3.594Zm.115 4.405a3.577 3.577 0 0 1-3.072 1.624c-1.913 0-3.072-1.623-3.072-3.594 0-2.319 1.681-3.826 4.347-3.826.57-.02 1.139.058 1.682.232v-.754a1.99 1.99 0 0 0-.574-1.571 1.982 1.982 0 0 0-1.571-.574 3.263 3.263 0 0 0-2.667 1.392l-.637-.812a5.572 5.572 0 0 1 4.637-2.666c2.84 0 4.521 1.68 4.521 4.231v6.608h1.218v1.102h-4.754l-.058-1.392ZM44.167 21.73v-1.102h1.044v-9.535h-1.044V10.02h4.754v10.608h1.101v1.102h-5.855Z"/></svg>