<svg xmlns="http://www.w3.org/2000/svg" width="87" height="112" fill="none"><path fill="#fff" d="m7.49 82.531 36.262 18.453 34.885-18.453V10.374H7.489V82.53Z"/><path fill="#F2F3F2" d="M79.371 10.65 6.755 83.815l37.64 18.636L79.37 84.551V10.649Z"/><path fill="#DCDEDC" d="M5.103 34.426v49.666l1.285.643 36.262 18.452 1.102.551 1.101-.551L79.83 84.735l1.286-.643V7.987H5.103v26.44Zm2.386 48.289V10.374h71.24v72.34l-34.977 18.453L7.489 82.715Z"/><path fill="#FF492C" d="M43.108 11.567c.368 0 .735 0 1.102.092l-1.102 2.112c-1.652-.092-3.12 1.193-3.213 2.846-.091 1.652 1.194 3.12 2.846 3.213h.367c.735 0 1.47-.276 2.02-.735l1.194 2.02a5.564 5.564 0 0 1-3.214 1.01c-2.937.092-5.416-2.112-5.508-5.05-.092-2.937 2.112-5.416 5.05-5.508h.459Zm3.765 4.499 1.377 2.295-1.377 2.203-1.286-2.203h-2.662l1.377-2.295h2.57Zm-2.204-.826c0-.368.092-.735.276-1.01.183-.276.55-.551.826-.735l.183-.091c.368-.184.46-.276.46-.46 0-.183-.276-.367-.46-.367-.367 0-.642.184-.826.551l-.459-.459c.092-.184.276-.367.46-.55.275-.184.55-.184.825-.184.276 0 .643.091.827.275.183.184.367.459.367.734 0 .46-.276.827-.826 1.01l-.276.184c-.275.184-.459.275-.55.55h1.652v.643l-2.479-.091Zm-1.56 11.475 8.72-4.957V7.988H34.296v13.678l8.813 5.049Z"/><path fill="#23CCA2" d="M82.86 59.213H3.36L.42 65.64l2.938 6.427H82.86l2.846-6.427-2.846-6.426Z"/><path fill="#252530" d="M17.211 55.082a.16.16 0 0 1-.156-.101l-1.377-3.048c-.012-.03-.033-.046-.064-.046h-1.028c-.037 0-.055.019-.055.055v3.011a.125.125 0 0 1-.128.129h-1.286a.158.158 0 0 1-.101-.037.124.124 0 0 1-.037-.092V47.5c0-.037.013-.067.037-.092a.158.158 0 0 1 .101-.036h3.149c.471 0 .884.094 1.24.284.354.19.63.462.825.817.196.355.294.762.294 1.221 0 .502-.125.93-.376 1.285-.251.355-.6.606-1.047.753-.037.018-.049.046-.037.083l1.497 3.112c.018.03.027.052.027.064 0 .061-.04.092-.119.092h-1.359Zm-2.625-6.38c-.037 0-.055.018-.055.055v1.882c0 .036.018.055.055.055h1.45c.306 0 .557-.092.753-.276a.937.937 0 0 0 .294-.716.937.937 0 0 0-.294-.716c-.196-.19-.447-.284-.753-.284h-1.45Zm9.997 2.965c.043.281.058.593.046.936-.012.086-.061.129-.147.129h-3.406c-.043 0-.058.018-.046.055.025.147.068.294.129.44.19.417.578.625 1.166.625.471-.012.841-.205 1.11-.579.031-.042.065-.064.102-.064.018 0 .043.015.073.046l.799.78c.037.037.055.07.055.101 0 .013-.015.04-.046.083a2.407 2.407 0 0 1-.936.707 3.16 3.16 0 0 1-1.258.248c-.63 0-1.166-.144-1.607-.432a2.392 2.392 0 0 1-.936-1.202c-.153-.367-.23-.848-.23-1.442 0-.404.055-.762.166-1.074.165-.52.459-.933.88-1.24.423-.311.925-.467 1.506-.467.735 0 1.325.214 1.772.642.441.429.71.998.808 1.708Zm-2.57-1c-.46 0-.762.216-.91.651-.03.092-.057.208-.082.349 0 .037.019.055.055.055h1.91c.043 0 .058-.018.046-.055a11.08 11.08 0 0 0-.055-.312.924.924 0 0 0-.35-.505 1.005 1.005 0 0 0-.614-.184Zm3.7 4.415a.124.124 0 0 1-.092-.037.124.124 0 0 1-.037-.092V47.5a.125.125 0 0 1 .128-.129h1.295a.125.125 0 0 1 .128.129v7.454a.125.125 0 0 1-.129.129h-1.294Zm4.819-5.747c.477 0 .903.083 1.276.248.373.165.664.389.872.67.214.288.322.61.322.964v3.736a.113.113 0 0 1-.046.092.124.124 0 0 1-.092.037h-1.285a.125.125 0 0 1-.092-.037.113.113 0 0 1-.046-.092v-.367c0-.024-.006-.04-.018-.046-.013-.006-.028.003-.046.028-.306.404-.802.606-1.488.606-.569 0-1.03-.141-1.386-.422-.355-.282-.532-.692-.532-1.23 0-.57.199-1.01.596-1.323.398-.312.964-.468 1.699-.468h1.12c.037 0 .055-.018.055-.055v-.239c0-.244-.074-.434-.22-.569-.147-.135-.368-.202-.661-.202-.227 0-.413.04-.56.12a.551.551 0 0 0-.294.34c-.025.079-.074.116-.147.11l-1.331-.175c-.086-.012-.126-.046-.12-.101.031-.306.153-.584.368-.835a2.12 2.12 0 0 1 .863-.588 3.345 3.345 0 0 1 1.193-.202Zm-.22 4.682c.312 0 .578-.086.798-.257a.792.792 0 0 0 .33-.652v-.395c0-.036-.018-.055-.054-.055h-.79c-.33 0-.59.062-.78.184a.615.615 0 0 0-.275.532c0 .196.07.352.21.469.135.116.322.174.56.174Zm6.903-3.489c0 .037-.012.07-.036.102a.125.125 0 0 1-.092.036H36.03c-.037 0-.055.019-.055.055v2.332c0 .245.049.425.147.542.098.116.257.174.477.174h.367c.037 0 .068.012.092.037.025.03.037.064.037.1v1.047c0 .08-.043.126-.129.138a13.01 13.01 0 0 1-.66.028c-.613 0-1.069-.101-1.368-.303-.3-.202-.456-.585-.469-1.148v-2.947c0-.036-.018-.055-.055-.055h-.624a.125.125 0 0 1-.092-.036.159.159 0 0 1-.036-.102v-.973c0-.036.012-.07.036-.1a.125.125 0 0 1 .092-.037h.624c.037 0 .055-.019.055-.055V48.05c0-.037.016-.067.046-.092a.125.125 0 0 1 .092-.037h1.23c.037 0 .068.013.092.037.03.025.046.055.046.092v1.313c0 .036.018.055.055.055h1.056c.036 0 .067.012.092.036.024.031.036.065.036.101v.974Zm1.772-1.744a.847.847 0 0 1-.863-.872c0-.257.08-.468.239-.633a.844.844 0 0 1 .624-.239c.257 0 .468.08.634.239.159.165.238.376.238.633a.847.847 0 0 1-.872.872Zm-.66 6.298a.125.125 0 0 1-.13-.129v-5.416a.125.125 0 0 1 .13-.129h1.294a.125.125 0 0 1 .128.129v5.416a.125.125 0 0 1-.128.129h-1.295Zm5.14.092c-.618 0-1.147-.162-1.588-.487a2.458 2.458 0 0 1-.909-1.322 4.16 4.16 0 0 1-.147-1.129c0-.428.05-.817.147-1.166.171-.544.477-.97.918-1.276.44-.306.97-.459 1.588-.459.6 0 1.114.15 1.543.45.422.306.722.731.9 1.276.116.367.174.753.174 1.157 0 .397-.05.768-.147 1.11-.165.576-.465 1.026-.9 1.35-.44.33-.967.496-1.579.496Zm0-1.34a.914.914 0 0 0 .615-.22c.165-.148.285-.35.358-.607.061-.232.092-.49.092-.77 0-.307-.03-.567-.092-.781a1.182 1.182 0 0 0-.367-.579.951.951 0 0 0-.624-.21c-.245 0-.45.07-.615.21a1.13 1.13 0 0 0-.358.579c-.062.177-.092.437-.092.78 0 .33.024.588.073.771.074.257.2.46.377.606a.94.94 0 0 0 .633.22Zm6.582-4.499c.588 0 1.062.178 1.423.532.361.362.542.851.542 1.47v3.616a.124.124 0 0 1-.037.092.158.158 0 0 1-.1.037H50.59a.125.125 0 0 1-.129-.129v-3.295c0-.294-.082-.533-.247-.716-.166-.184-.386-.276-.661-.276a.835.835 0 0 0-.652.276c-.165.183-.248.422-.248.716v3.295a.124.124 0 0 1-.037.092.158.158 0 0 1-.1.037H47.23a.125.125 0 0 1-.129-.129v-5.398c0-.036.013-.07.037-.1a.125.125 0 0 1 .092-.037h1.285c.037 0 .07.012.101.036.025.031.037.065.037.101v.386c0 .018.006.03.018.037.019.012.031.009.037-.01.3-.422.747-.633 1.34-.633Zm5.334 5.82c-.49 0-.918-.067-1.285-.202-.367-.14-.652-.336-.854-.587a1.313 1.313 0 0 1-.303-.845v-.11c0-.037.012-.07.037-.1a.125.125 0 0 1 .092-.038h1.22c.037 0 .068.013.093.037a.14.14 0 0 1 .045.101v.01c0 .158.09.296.267.412.177.11.404.166.679.166.25 0 .453-.05.606-.147.153-.098.23-.22.23-.367 0-.135-.068-.233-.203-.294-.128-.068-.342-.138-.642-.211a7.016 7.016 0 0 1-.817-.257c-.471-.16-.848-.358-1.13-.597-.275-.233-.413-.57-.413-1.01 0-.545.212-.976.634-1.294.422-.319.982-.478 1.68-.478.471 0 .881.074 1.23.22.355.154.63.365.826.634.19.275.285.584.285.927a.124.124 0 0 1-.037.092.113.113 0 0 1-.092.046h-1.175a.14.14 0 0 1-.1-.046.124.124 0 0 1-.037-.092c0-.159-.083-.294-.248-.404-.165-.11-.383-.165-.652-.165-.245 0-.444.043-.597.129-.153.091-.23.214-.23.367 0 .147.074.257.221.33.153.074.407.15.762.23.08.024.171.049.275.073.098.025.209.055.33.092.521.153.931.352 1.231.597.3.238.45.59.45 1.055 0 .545-.214.97-.643 1.277-.428.3-1.007.45-1.735.45Zm6.224-5.82c.588 0 1.062.178 1.423.532.361.362.542.851.542 1.47v3.616a.113.113 0 0 1-.046.092.125.125 0 0 1-.092.037H62.15a.125.125 0 0 1-.092-.037.113.113 0 0 1-.046-.092v-3.295c0-.294-.082-.533-.248-.716a.835.835 0 0 0-.651-.276.835.835 0 0 0-.652.276c-.165.183-.248.422-.248.716v3.295a.113.113 0 0 1-.046.092.125.125 0 0 1-.092.037H58.79a.125.125 0 0 1-.092-.037.113.113 0 0 1-.046-.092V47.5c0-.037.016-.067.046-.092a.125.125 0 0 1 .092-.036h1.285c.037 0 .068.012.092.036.03.025.046.055.046.092v2.442c0 .018.006.03.018.037.013.012.025.009.037-.01.3-.422.747-.633 1.34-.633Zm3.911-.55a.846.846 0 0 1-.872-.873c0-.257.083-.468.248-.633a.844.844 0 0 1 .624-.239c.257 0 .465.08.624.239a.858.858 0 0 1 .248.633.846.846 0 0 1-.872.872Zm-.66 6.297a.124.124 0 0 1-.093-.037.124.124 0 0 1-.036-.092v-5.416a.125.125 0 0 1 .128-.129h1.285c.037 0 .07.013.102.037a.125.125 0 0 1 .036.092v5.416a.124.124 0 0 1-.037.092.158.158 0 0 1-.1.037h-1.286Zm7.692-4.14c.129.373.193.814.193 1.322 0 .508-.07.967-.211 1.377a2.319 2.319 0 0 1-.799 1.12c-.36.275-.81.413-1.35.413-.525 0-.936-.184-1.23-.551-.012-.024-.027-.034-.045-.028-.013.007-.019.022-.019.046v2.36a.125.125 0 0 1-.036.092.159.159 0 0 1-.101.036h-1.285a.125.125 0 0 1-.129-.128v-7.446c0-.036.012-.07.037-.1a.124.124 0 0 1 .091-.037h1.286c.036 0 .07.012.1.036.025.031.037.065.037.101v.358c0 .025.007.037.019.037.018.006.033.003.046-.009.306-.404.731-.606 1.276-.606.508 0 .948.14 1.322.422.367.282.633.677.798 1.185Zm-1.689 2.47c.184-.288.276-.68.276-1.176 0-.459-.077-.826-.23-1.102-.171-.312-.444-.468-.817-.468-.337 0-.59.156-.762.468-.153.27-.23.643-.23 1.12 0 .49.08.87.24 1.139.17.294.422.44.752.44a.87.87 0 0 0 .771-.422ZM36.72 40.044c-.043.024-.043.045 0 .064.697.36 1.046.96 1.046 1.8 0 .71-.242 1.248-.725 1.615-.484.361-1.12.542-1.91.542h-2.846a.158.158 0 0 1-.1-.037.124.124 0 0 1-.037-.092v-7.454c0-.037.012-.068.036-.092a.158.158 0 0 1 .102-.037h2.763c1.738 0 2.607.704 2.607 2.112 0 .734-.312 1.26-.936 1.579Zm-2.966-2.36c-.036 0-.055.019-.055.055v1.717c0 .037.019.055.055.055h1.295c.343 0 .609-.08.798-.239.196-.159.294-.379.294-.66 0-.288-.098-.515-.294-.68-.19-.165-.456-.248-.798-.248h-1.295Zm1.377 5.04c.343 0 .61-.089.8-.266.189-.171.284-.407.284-.707s-.095-.535-.285-.707c-.19-.177-.459-.266-.808-.266h-1.368c-.036 0-.055.018-.055.055v1.836c0 .037.019.055.055.055h1.377Zm8.758-2.075c.05.282.065.594.046.937-.006.086-.052.128-.137.128h-3.406c-.043 0-.058.019-.046.055.024.147.064.294.12.441.189.416.578.624 1.165.624a1.366 1.366 0 0 0 1.12-.578c.025-.043.055-.064.092-.064.024 0 .052.015.082.046l.79.78c.037.037.055.07.055.101 0 .012-.015.04-.046.083-.238.306-.55.541-.936.706-.38.166-.796.248-1.249.248-.636 0-1.172-.143-1.606-.431a2.443 2.443 0 0 1-.946-1.203c-.153-.367-.23-.847-.23-1.441 0-.404.056-.762.166-1.074.171-.52.468-.934.89-1.24.423-.312.924-.468 1.506-.468.734 0 1.322.215 1.762.643.447.428.717.998.808 1.708Zm-2.56-1c-.466 0-.772.217-.919.652a1.91 1.91 0 0 0-.073.349c0 .036.018.055.055.055h1.9c.049 0 .064-.019.046-.056a11.444 11.444 0 0 0-.055-.312.924.924 0 0 0-.349-.505.99.99 0 0 0-.606-.183Zm5.746 4.489c-.49 0-.918-.067-1.285-.202-.367-.14-.652-.337-.854-.587a1.313 1.313 0 0 1-.303-.845v-.11c0-.037.012-.07.037-.101a.125.125 0 0 1 .091-.037h1.221c.037 0 .07.012.102.037.024.03.036.064.036.1v.01c0 .16.089.297.267.413.183.11.41.165.679.165.25 0 .453-.049.606-.147.153-.098.23-.22.23-.367 0-.135-.065-.232-.194-.294a3.371 3.371 0 0 0-.651-.21 7.016 7.016 0 0 1-.817-.258c-.472-.159-.845-.358-1.12-.597-.282-.232-.423-.569-.423-1.01 0-.544.211-.975.634-1.294.422-.318.982-.477 1.68-.477.471 0 .881.073 1.23.22.355.153.63.364.826.634.196.275.294.584.294.927a.113.113 0 0 1-.046.092.113.113 0 0 1-.092.046h-1.175a.113.113 0 0 1-.092-.046.113.113 0 0 1-.046-.092c0-.16-.082-.294-.247-.404-.166-.11-.383-.165-.652-.165-.245 0-.444.043-.597.128-.153.092-.23.214-.23.367 0 .147.077.258.23.33.147.074.398.15.753.23.08.025.171.05.275.074.104.024.214.055.33.092.52.153.931.352 1.23.596.3.24.45.591.45 1.056 0 .545-.213.97-.642 1.276-.428.3-1.007.45-1.735.45Zm6.509-4.627c0 .037-.012.07-.037.101a.125.125 0 0 1-.092.037H52.4c-.037 0-.056.018-.056.055v2.332c0 .245.05.425.147.541.098.117.257.175.478.175h.367c.037 0 .067.012.092.036.024.031.037.065.037.102v1.046c0 .08-.043.126-.129.138-.312.018-.532.027-.661.027-.612 0-1.068-.1-1.368-.303-.3-.202-.453-.584-.459-1.147v-2.947c0-.037-.018-.055-.055-.055h-.633a.125.125 0 0 1-.092-.037.158.158 0 0 1-.037-.1v-.974c0-.037.012-.07.037-.101a.125.125 0 0 1 .092-.037h.633c.037 0 .055-.018.055-.055v-1.313a.125.125 0 0 1 .129-.128h1.23c.036 0 .07.012.1.037a.125.125 0 0 1 .037.091v1.313c0 .037.019.055.056.055h1.055c.037 0 .068.012.092.037.025.03.037.064.037.101v.973Z"/><path fill="#242530" d="M26.438 63.601a.1.1 0 0 1-.028.074.114.114 0 0 1-.082.036h-3.131c-.03 0-.046.016-.046.046v1.717c0 .03.015.046.046.046h2.102c.03 0 .058.009.083.027a.134.134 0 0 1 .027.083v.698c0 .03-.009.058-.027.082a.134.134 0 0 1-.083.028h-2.102c-.03 0-.046.015-.046.046v1.772c0 .03.015.046.046.046h3.13c.031 0 .059.012.083.036a.1.1 0 0 1 .028.074v.697a.1.1 0 0 1-.028.074.114.114 0 0 1-.082.036h-4.132a.087.087 0 0 1-.073-.036.087.087 0 0 1-.037-.074v-6.206c0-.03.012-.055.037-.073a.087.087 0 0 1 .073-.037h4.131c.031 0 .059.013.083.037a.1.1 0 0 1 .028.073v.698Zm3.231.854c.496 0 .894.147 1.194.44.293.294.44.695.44 1.203v3.011c0 .03-.012.055-.037.074a.087.087 0 0 1-.073.036h-.845a.114.114 0 0 1-.082-.036.1.1 0 0 1-.028-.074v-2.79c0-.282-.08-.511-.238-.689-.16-.171-.37-.257-.634-.257a.853.853 0 0 0-.642.257c-.16.171-.24.398-.24.68v2.8a.1.1 0 0 1-.027.073.114.114 0 0 1-.082.036h-.845a.087.087 0 0 1-.073-.036.087.087 0 0 1-.037-.074v-4.47c0-.031.012-.059.037-.083a.099.099 0 0 1 .073-.028h.845c.03 0 .058.01.082.028a.134.134 0 0 1 .028.082v.294c0 .019.006.03.018.037.012.006.022 0 .028-.018.25-.33.63-.496 1.138-.496Zm5.233.826c0 .03-.012.055-.037.074a.087.087 0 0 1-.073.036h-.937c-.03 0-.045.016-.045.046v2.213c0 .232.048.4.146.505.104.104.267.156.487.156h.275a.1.1 0 0 1 .074.027.114.114 0 0 1 .036.083v.688c0 .068-.036.107-.11.12l-.477.009c-.484 0-.845-.083-1.083-.248-.239-.165-.361-.477-.368-.936v-2.617c0-.03-.015-.046-.045-.046h-.524a.114.114 0 0 1-.082-.036.1.1 0 0 1-.028-.074v-.643c0-.03.01-.058.028-.082a.134.134 0 0 1 .082-.028h.524c.03 0 .045-.015.045-.046v-1.074c0-.03.01-.058.028-.082a.135.135 0 0 1 .083-.028h.798a.1.1 0 0 1 .074.028.114.114 0 0 1 .036.082v1.075c0 .03.016.045.046.045h.937c.03 0 .055.01.073.028a.114.114 0 0 1 .037.082v.643Zm4.81 1.065c.025.153.037.324.037.514l-.009.285c0 .073-.037.11-.11.11h-2.874c-.03 0-.046.015-.046.046.019.202.046.34.083.413.147.44.505.664 1.074.67.416 0 .747-.171.992-.514.024-.037.055-.055.091-.055.025 0 .046.01.065.028l.569.468c.055.042.064.091.027.146-.19.27-.44.478-.752.625-.319.147-.67.22-1.056.22-.477 0-.884-.107-1.221-.321a1.857 1.857 0 0 1-.725-.9c-.141-.33-.212-.79-.212-1.377 0-.355.037-.642.11-.863.123-.428.356-.768.698-1.019.337-.245.744-.367 1.221-.367 1.206 0 1.885.63 2.038 1.891Zm-2.038-.973a.913.913 0 0 0-.569.174.885.885 0 0 0-.312.469 1.592 1.592 0 0 0-.073.403c-.013.031 0 .046.036.046h1.864c.03 0 .046-.015.046-.046a1.735 1.735 0 0 0-.055-.348.9.9 0 0 0-.322-.514 1.004 1.004 0 0 0-.615-.184Zm5.233-.9c.196 0 .367.04.514.12.05.024.068.07.055.137l-.156.827c-.006.073-.049.094-.128.064a1.018 1.018 0 0 0-.322-.046c-.08 0-.14.003-.183.01a.958.958 0 0 0-.643.265.895.895 0 0 0-.257.661v2.598a.1.1 0 0 1-.027.074.114.114 0 0 1-.083.036h-.845a.087.087 0 0 1-.073-.036.087.087 0 0 1-.037-.074v-4.47c0-.031.012-.059.037-.083a.099.099 0 0 1 .073-.028h.845c.03 0 .058.01.083.028a.134.134 0 0 1 .027.082v.414c0 .024.003.036.01.036.012.007.024 0 .036-.018.257-.398.615-.597 1.074-.597Zm5.242 1.267c.11.312.165.695.165 1.148 0 .434-.052.808-.156 1.12-.134.404-.349.719-.642.945-.3.227-.677.34-1.13.34-.434 0-.783-.156-1.046-.468-.012-.013-.025-.016-.037-.01-.012.007-.018.019-.018.037v1.992a.1.1 0 0 1-.028.074.114.114 0 0 1-.082.037h-.845a.087.087 0 0 1-.073-.037.087.087 0 0 1-.037-.074v-6.206c0-.03.012-.058.037-.082a.099.099 0 0 1 .073-.028h.845c.03 0 .058.01.082.028a.134.134 0 0 1 .028.082v.276c0 .018.006.03.018.037.013.006.025 0 .037-.019.27-.318.621-.477 1.056-.477.434 0 .801.113 1.101.34.3.226.517.541.652.945Zm-1.193 2.25c.183-.282.275-.655.275-1.12 0-.447-.073-.8-.22-1.056a.841.841 0 0 0-.78-.45c-.319 0-.558.147-.717.44-.14.24-.21.594-.21 1.065 0 .484.076.851.229 1.102.159.27.388.404.688.404.325 0 .57-.129.735-.386Zm4.572-3.517c.195 0 .367.04.514.12.049.024.067.07.055.137l-.156.827c-.007.073-.05.094-.129.064a1.017 1.017 0 0 0-.321-.046c-.08 0-.141.003-.184.01a.958.958 0 0 0-.643.265.895.895 0 0 0-.257.661v2.598a.1.1 0 0 1-.027.074.114.114 0 0 1-.083.036h-.844a.087.087 0 0 1-.074-.036.087.087 0 0 1-.036-.074v-4.47c0-.031.012-.059.036-.083a.099.099 0 0 1 .074-.028h.844c.03 0 .059.01.083.028a.135.135 0 0 1 .027.082v.414c0 .024.004.036.01.036.012.007.024 0 .036-.018.257-.398.615-.597 1.075-.597Zm1.872-.587a.634.634 0 0 1-.468-.184.634.634 0 0 1-.184-.468c0-.19.062-.346.184-.468a.634.634 0 0 1 .468-.184c.19 0 .346.061.468.184a.634.634 0 0 1 .184.468c0 .19-.061.346-.184.468a.634.634 0 0 1-.468.184Zm-.44 5.333a.087.087 0 0 1-.074-.036.087.087 0 0 1-.037-.074v-4.48c0-.03.013-.055.037-.073a.087.087 0 0 1 .074-.037h.844c.03 0 .058.012.083.037a.1.1 0 0 1 .027.073v4.48a.1.1 0 0 1-.027.074.114.114 0 0 1-.083.036h-.844Zm3.92.056c-.386 0-.726-.059-1.02-.175a1.523 1.523 0 0 1-.67-.468 1.021 1.021 0 0 1-.238-.661v-.083c0-.03.009-.058.027-.082a.135.135 0 0 1 .083-.028h.808c.03 0 .058.01.082.028a.134.134 0 0 1 .028.082v.019c0 .153.083.287.248.404.171.11.385.165.642.165.245 0 .444-.05.597-.147.153-.104.23-.233.23-.386a.35.35 0 0 0-.193-.32 3.142 3.142 0 0 0-.606-.221l-.349-.11a5.168 5.168 0 0 1-.79-.294 1.555 1.555 0 0 1-.541-.432c-.147-.177-.22-.407-.22-.688 0-.429.168-.768.505-1.02.336-.256.78-.385 1.33-.385.374 0 .702.058.983.175.281.122.499.287.652.495.153.215.23.456.23.726 0 .03-.01.058-.028.082a.134.134 0 0 1-.083.028h-.78a.134.134 0 0 1-.083-.028.135.135 0 0 1-.027-.082c0-.16-.077-.291-.23-.395-.159-.11-.373-.165-.642-.165-.24 0-.432.043-.579.128-.153.092-.23.218-.23.377 0 .147.071.257.212.33.147.08.389.165.725.257l.202.055c.324.098.597.196.817.294.22.104.407.245.56.422.153.184.23.42.23.707 0 .435-.172.774-.514 1.02-.343.25-.8.376-1.368.376Zm6.738-2.929c.024.153.037.324.037.514l-.01.285c0 .073-.036.11-.11.11h-2.873c-.03 0-.046.015-.046.046.018.202.046.34.083.413.147.44.505.664 1.074.67.416 0 .746-.171.991-.514.025-.037.055-.055.092-.055.024 0 .046.01.064.028l.57.468c.054.042.064.091.027.146-.19.27-.444.478-.762.625-.312.147-.66.22-1.047.22-.477 0-.884-.107-1.22-.321a1.858 1.858 0 0 1-.726-.9c-.14-.33-.21-.79-.21-1.377 0-.355.036-.642.11-.863.122-.428.351-.768.688-1.019.343-.245.753-.367 1.23-.367 1.206 0 1.885.63 2.038 1.891Zm-2.038-.973a.913.913 0 0 0-.57.174.885.885 0 0 0-.311.469 1.593 1.593 0 0 0-.074.403c-.012.031 0 .046.037.046h1.864c.03 0 .045-.015.045-.046a1.727 1.727 0 0 0-.055-.348.881.881 0 0 0-.33-.514.965.965 0 0 0-.606-.184Z"/><path fill="#252530" d="M30.486 82.237c-.49 0-.918-.08-1.285-.238a1.827 1.827 0 0 1-.845-.67 1.713 1.713 0 0 1-.303-1.01v-.202c0-.03.013-.055.037-.074a.087.087 0 0 1 .074-.036h1.046c.03 0 .058.012.083.036a.1.1 0 0 1 .027.074v.137c0 .245.114.45.34.616.227.17.532.257.918.257.324 0 .566-.068.725-.202a.661.661 0 0 0 .239-.514.498.498 0 0 0-.147-.368 1.19 1.19 0 0 0-.404-.266 9.828 9.828 0 0 0-.799-.321 8.135 8.135 0 0 1-1.046-.432 2.043 2.043 0 0 1-.707-.606c-.196-.25-.294-.563-.294-.936 0-.367.095-.689.285-.964.19-.275.453-.487.79-.633.336-.147.725-.22 1.165-.22.465 0 .878.082 1.24.247.367.165.654.398.863.698.202.294.303.636.303 1.028v.138a.1.1 0 0 1-.028.073.114.114 0 0 1-.083.037h-1.055a.087.087 0 0 1-.074-.037.087.087 0 0 1-.036-.073v-.074a.852.852 0 0 0-.313-.66c-.214-.178-.505-.267-.872-.267-.287 0-.514.061-.68.184a.602.602 0 0 0-.238.505.54.54 0 0 0 .147.385c.092.104.233.196.422.276.184.085.472.198.863.34.435.158.774.3 1.02.422.25.122.477.303.679.541.196.245.293.56.293.946 0 .575-.21 1.028-.633 1.359-.422.336-.995.504-1.717.504Zm5.912-6.508c.404 0 .76.082 1.065.247.306.166.545.398.716.698.166.306.248.655.248 1.047 0 .385-.085.725-.257 1.019a1.838 1.838 0 0 1-.743.688c-.313.16-.674.239-1.084.239H35.04c-.03 0-.046.015-.046.046v2.34c0 .031-.012.056-.037.074a.088.088 0 0 1-.073.037h-1.075a.114.114 0 0 1-.082-.037.1.1 0 0 1-.028-.073v-6.215c0-.03.01-.058.028-.083a.134.134 0 0 1 .083-.027h2.588Zm-.192 2.9c.281 0 .508-.082.679-.247.171-.16.257-.37.257-.634 0-.269-.086-.486-.257-.652-.171-.165-.398-.247-.68-.247H35.04c-.03 0-.046.015-.046.045v1.69c0 .03.015.046.046.046h1.166Zm6.545 3.535a.13.13 0 0 1-.128-.083l-1.148-2.543c-.012-.024-.03-.036-.055-.036h-.854c-.03 0-.046.015-.046.046v2.506c0 .03-.012.055-.036.073a.087.087 0 0 1-.074.037h-1.074a.114.114 0 0 1-.082-.037.1.1 0 0 1-.028-.073v-6.206c0-.03.01-.055.028-.073a.114.114 0 0 1 .082-.037h2.626c.391 0 .734.08 1.028.238.3.16.53.386.688.68.166.294.248.633.248 1.019 0 .416-.104.77-.312 1.065-.208.3-.499.51-.872.633-.03.012-.04.034-.027.064l1.248 2.599a.14.14 0 0 1 .018.055c0 .049-.033.073-.1.073h-1.13Zm-2.185-5.315c-.03 0-.046.015-.046.045v1.57c0 .03.016.046.046.046h1.203c.257 0 .465-.076.624-.23a.776.776 0 0 0 .248-.596.805.805 0 0 0-.248-.606c-.159-.153-.367-.23-.624-.23h-1.203Zm4.407 5.315a.087.087 0 0 1-.074-.037.087.087 0 0 1-.036-.073v-6.206c0-.03.012-.055.036-.073a.087.087 0 0 1 .074-.037h1.074c.03 0 .058.012.083.037a.099.099 0 0 1 .027.073v6.206a.1.1 0 0 1-.027.073.114.114 0 0 1-.083.037h-1.074Zm5.995-6.316c0-.03.012-.055.036-.073a.087.087 0 0 1 .074-.037h1.074c.03 0 .058.012.082.037a.099.099 0 0 1 .028.073v6.206a.1.1 0 0 1-.028.073.114.114 0 0 1-.082.037h-1.038c-.06 0-.104-.025-.128-.073l-2.378-3.93c-.012-.018-.024-.024-.036-.018-.013 0-.019.012-.019.037l.019 3.874a.1.1 0 0 1-.028.073.115.115 0 0 1-.083.037h-1.074a.087.087 0 0 1-.073-.037.087.087 0 0 1-.037-.073v-6.206c0-.03.012-.055.037-.073a.087.087 0 0 1 .073-.037h1.038c.06 0 .104.024.128.073l2.369 3.911c.012.018.024.025.036.018.013 0 .019-.012.019-.036l-.01-3.856Zm4.672 6.39c-.47 0-.887-.095-1.248-.285a2.04 2.04 0 0 1-.836-.79 2.288 2.288 0 0 1-.302-1.184v-2.056c0-.447.1-.842.302-1.185.196-.342.475-.609.836-.798a2.718 2.718 0 0 1 1.248-.276c.465 0 .879.092 1.24.276.355.183.633.434.835.752.196.313.294.662.294 1.047v.064a.1.1 0 0 1-.028.074.114.114 0 0 1-.082.037h-1.074a.087.087 0 0 1-.074-.037.087.087 0 0 1-.037-.074v-.027a.945.945 0 0 0-.293-.707c-.196-.196-.456-.294-.78-.294-.331 0-.594.101-.79.303-.202.208-.303.477-.303.808v2.13c0 .33.107.596.321.798.214.209.487.313.817.313.319 0 .572-.086.762-.257.19-.166.285-.398.285-.698v-.413c0-.03-.015-.046-.046-.046h-1.028a.087.087 0 0 1-.074-.037.087.087 0 0 1-.037-.073v-.845c0-.03.013-.055.037-.073a.087.087 0 0 1 .074-.037h2.24c.03 0 .058.012.082.037a.1.1 0 0 1 .028.073v1.212c0 .465-.098.869-.294 1.212a1.977 1.977 0 0 1-.826.79 2.796 2.796 0 0 1-1.249.265Zm-20.995 7.39c-.012.012-.015.024-.01.036.007.013.02.019.038.019h2.487c.031 0 .059.009.083.027a.135.135 0 0 1 .027.083v.89a.1.1 0 0 1-.027.074.114.114 0 0 1-.083.036h-4.13a.114.114 0 0 1-.083-.036.1.1 0 0 1-.028-.074v-.844c0-.055.018-.101.055-.138.3-.294.606-.612.918-.955.312-.349.508-.566.588-.651.171-.203.346-.395.523-.579.557-.618.835-1.077.835-1.377a.693.693 0 0 0-.23-.532c-.152-.135-.351-.202-.596-.202s-.444.067-.597.202a.714.714 0 0 0-.23.55v.23c0 .03-.011.058-.036.083a.1.1 0 0 1-.073.027h-1.084a.1.1 0 0 1-.073-.027.115.115 0 0 1-.037-.083v-.431c.019-.331.123-.625.312-.882.19-.25.441-.444.753-.578a2.707 2.707 0 0 1 1.065-.202c.435 0 .814.08 1.139.239.318.165.566.385.743.66.172.276.257.582.257.919 0 .257-.064.52-.193.789-.128.27-.32.56-.578.872-.19.239-.395.475-.615.707-.22.233-.548.57-.982 1.01l-.138.138Zm5.61 1.266c-.674 0-1.207-.19-1.598-.569-.392-.373-.588-.884-.588-1.533V86.37c0-.637.196-1.142.588-1.515.391-.373.924-.56 1.597-.56.673 0 1.209.187 1.607.56.391.373.587.878.587 1.515v2.423c0 .649-.196 1.16-.587 1.533-.398.38-.934.57-1.607.57Zm0-1.11c.274 0 .495-.086.66-.257.16-.166.239-.389.239-.67v-2.525c0-.282-.08-.505-.239-.67-.165-.172-.386-.257-.66-.257-.27 0-.484.085-.644.257-.165.165-.247.388-.247.67v2.524c0 .282.082.505.248.67.159.172.373.258.642.258Zm4.764-.156c-.012.012-.016.024-.01.036.007.013.019.019.037.019h2.488c.03 0 .058.009.083.027a.134.134 0 0 1 .027.083v.89a.1.1 0 0 1-.027.074.114.114 0 0 1-.083.036h-4.131a.088.088 0 0 1-.073-.036.087.087 0 0 1-.037-.074v-.844c0-.055.018-.101.055-.138.3-.294.606-.612.918-.955.312-.349.508-.566.587-.651.172-.203.346-.395.524-.579.557-.618.835-1.077.835-1.377a.693.693 0 0 0-.23-.532c-.152-.135-.351-.202-.596-.202s-.444.067-.597.202a.714.714 0 0 0-.23.55v.23c0 .03-.008.058-.027.083a.135.135 0 0 1-.082.027h-1.084a.1.1 0 0 1-.073-.027.114.114 0 0 1-.037-.083v-.431c.019-.331.123-.625.312-.882.19-.25.444-.444.762-.578a2.64 2.64 0 0 1 1.056-.202c.434 0 .814.08 1.138.239.319.165.566.385.744.66.171.276.257.582.257.919 0 .257-.064.52-.193.789-.128.27-.321.56-.578.872-.19.239-.395.475-.615.707-.22.233-.548.57-.983 1.01l-.137.138Zm8.014-1.635c.03 0 .058.01.083.028a.135.135 0 0 1 .027.083v.927c0 .03-.009.058-.027.082a.135.135 0 0 1-.083.028h-.395c-.03 0-.045.015-.045.046v1.496a.1.1 0 0 1-.028.074.114.114 0 0 1-.083.036h-1.074a.087.087 0 0 1-.073-.036.087.087 0 0 1-.037-.074v-1.496c0-.03-.015-.046-.046-.046h-2.818a.1.1 0 0 1-.074-.028.114.114 0 0 1-.036-.082v-.735c0-.036.009-.082.027-.137l1.653-3.71a.13.13 0 0 1 .128-.082h1.148c.042 0 .073.012.091.037.013.018.01.049-.009.092l-1.533 3.442a.04.04 0 0 0 0 .037c.006.012.015.019.028.019h1.395c.03 0 .046-.016.046-.046v-1.139c0-.03.012-.055.037-.073a.087.087 0 0 1 .073-.037h1.074c.03 0 .059.012.083.037a.099.099 0 0 1 .028.073v1.139c0 .03.015.046.045.046h.395Z"/></svg>