<svg xmlns="http://www.w3.org/2000/svg" width="77" height="40" fill="none"><path fill="#00BCEB" d="M26.016 26.198h-3.219v12.608h3.219V26.198ZM51.633 29.819c-.805-.47-1.743-.67-2.682-.67-2.08 0-3.487 1.408-3.487 3.352 0 .94.335 1.811 1.005 2.482a3.136 3.136 0 0 0 2.482.938c.939 0 1.877-.2 2.682-.67v3.42c-.939.268-1.945.47-2.883.47-3.555 0-6.706-2.482-6.706-6.573 0-3.755 2.816-6.504 6.706-6.504 1.005 0 1.944.134 2.883.469v3.286ZM18.37 29.819c-.804-.47-1.743-.67-2.682-.67-2.079 0-3.487 1.408-3.487 3.352 0 .94.335 1.811 1.006 2.482a3.136 3.136 0 0 0 2.481.938c.94 0 1.878-.2 2.683-.67v3.42c-.94.268-1.945.47-2.884.47-3.554 0-6.706-2.482-6.706-6.573 0-3.755 2.817-6.504 6.706-6.504 1.006 0 1.945.134 2.884.469v3.286ZM68.332 32.502c.067 2.683-1.543 5.164-4.024 6.237a6.701 6.701 0 0 1-7.31-1.341c-1.944-1.878-2.548-4.762-1.475-7.31 1.006-2.481 3.487-4.158 6.17-4.158 1.743-.067 3.487.604 4.694 1.878 1.274 1.207 1.945 2.884 1.945 4.694Zm-6.64-3.353a3.389 3.389 0 0 0-3.084 2.012c-.537 1.274-.268 2.682.67 3.621.94.94 2.415 1.275 3.622.738 1.274-.536 2.078-1.744 2.078-3.085 0-.872-.335-1.743-.938-2.347-.67-.604-1.476-.939-2.348-.939ZM38.02 29.015a15.91 15.91 0 0 0-2.48-.403c-1.275 0-1.946.403-1.946 1.006 0 .738.94 1.006 1.476 1.207l.939.268c2.079.67 3.017 2.08 3.017 3.622 0 3.151-2.816 4.224-5.23 4.224-1.14 0-2.28-.134-3.42-.335v-2.95c1.005.268 2.012.402 3.017.469 1.61 0 2.347-.47 2.347-1.207 0-.67-.603-1.006-1.408-1.274l-.872-.067c-1.743-.537-3.286-1.61-3.286-3.689 0-2.347 1.744-3.956 4.695-3.956 1.073 0 2.079.134 3.084.402l.067 2.683ZM14.08 8.225c0-.872-.737-1.61-1.609-1.61s-1.61.738-1.61 1.61v7.645c0 .871.738 1.61 1.61 1.61.872 0 1.61-.739 1.61-1.61V8.225ZM22.73 2.324c0-.872-.737-1.61-1.609-1.61s-1.61.738-1.61 1.61v16.765c0 .872.738 1.61 1.61 1.61.872 0 1.61-.738 1.61-1.61V2.324ZM31.449 8.225c0-.872-.738-1.61-1.61-1.61-.871 0-1.61.738-1.61 1.61v7.645c0 .871.739 1.61 1.61 1.61.872 0 1.61-.739 1.61-1.61V8.225ZM40.1 12.584c0-.872-.738-1.61-1.61-1.61-.871 0-1.609.738-1.609 1.61v3.286c0 .872.738 1.61 1.61 1.61.871 0 1.609-.738 1.609-1.61v-3.286ZM5.362 12.584c0-.872-.738-1.61-1.61-1.61-.871 0-1.61.738-1.61 1.61v3.286c0 .872.739 1.61 1.61 1.61.872 0 1.61-.738 1.61-1.61v-3.286ZM48.818 8.225c0-.872-.738-1.61-1.61-1.61-.872 0-1.61.738-1.61 1.61v7.645c0 .871.738 1.61 1.61 1.61.872 0 1.61-.739 1.61-1.61V8.225ZM57.535 2.324c0-.872-.737-1.61-1.61-1.61-.871 0-1.609.738-1.609 1.61v16.765c0 .872.738 1.61 1.61 1.61.872 0 1.61-.738 1.61-1.61V2.324ZM66.186 8.225c-.067-.804-.738-1.475-1.542-1.475-.805 0-1.543.67-1.61 1.475v7.645a1.61 1.61 0 0 0 1.61 1.476c.804 0 1.542-.671 1.61-1.476V8.225h-.068ZM74.905 12.585c0-.872-.738-1.61-1.61-1.61-.871 0-1.61.738-1.61 1.61v3.285c0 .872.739 1.61 1.61 1.61.872 0 1.61-.738 1.61-1.61v-3.285Z"/></svg>