<svg xmlns="http://www.w3.org/2000/svg" width="32" height="32" fill="none"><path fill="#198038" fill-rule="evenodd" d="M21.385 4h-10.77C9.724 4 9 4.723 9 5.615V6H6l-.15.005A2 2 0 0 0 4 8v1.292l.005.27a8.015 8.015 0 0 0 5.228 7.235A7.007 7.007 0 0 0 15 21.93V26h-4a1 1 0 1 0 0 2h10a1 1 0 1 0 0-2h-4v-4.073a7.01 7.01 0 0 0 5.767-5.13A8.014 8.014 0 0 0 28 9.293V8l-.005-.15A2 2 0 0 0 26 6h-3v-.385C23 4.723 22.276 4 21.385 4ZM9 14.486V8H6v1.292a6.011 6.011 0 0 0 3 5.194Zm16.995-4.947A6.014 6.014 0 0 1 23 14.486V8h3v1.292l-.005.247ZM11 6h10v9a5 5 0 0 1-4.812 4.997l-.206.003-.216-.005C13.122 19.883 11 17.69 11 15V6Z" clip-rule="evenodd"/></svg>