<svg xmlns="http://www.w3.org/2000/svg" width="48" height="48" fill="none"><path fill="#198038" fill-rule="evenodd" d="M28.5 6c-1.792 0-3.4.786-4.5 2.031A6 6 0 0 0 14.303 15H9a3 3 0 0 0-3 3v3a3 3 0 0 0 3 3h1.5v15a4.5 4.5 0 0 0 4.5 4.5h18a4.5 4.5 0 0 0 4.5-4.5V24H39a3 3 0 0 0 3-3v-3a3 3 0 0 0-3-3h-5.303A6 6 0 0 0 28.5 6Zm-3 34.5H33a1.5 1.5 0 0 0 1.5-1.5V24h-9v16.5Zm-3-16.5v16.5H15a1.5 1.5 0 0 1-1.5-1.5V24h9Zm3-3H39v-3H25.5v3Zm-3-3H9v3h13.5v-3Zm-3-9a3 3 0 0 1 3 2.978V15h-3.027a3 3 0 0 1 .027-6Zm9.027 6H25.5v-3.022A3 3 0 1 1 28.527 15Z" clip-rule="evenodd"/></svg>