<svg xmlns="http://www.w3.org/2000/svg" width="32" height="32" fill="none"><path fill="#000" d="M12.08 6.667h7.84a5.417 5.417 0 0 1 5.414 5.413v7.84a5.413 5.413 0 0 1-5.414 5.413h-7.84a5.417 5.417 0 0 1-5.413-5.413v-7.84a5.413 5.413 0 0 1 5.413-5.413zm-.186 1.866a3.36 3.36 0 0 0-3.36 3.36v8.214a3.358 3.358 0 0 0 3.36 3.36h8.213a3.36 3.36 0 0 0 3.36-3.36v-8.214a3.358 3.358 0 0 0-3.36-3.36h-8.213zm9.006 1.4a1.167 1.167 0 1 1 0 2.334 1.167 1.167 0 0 1 0-2.334zm-4.9 1.4a4.667 4.667 0 1 1 0 9.334 4.667 4.667 0 0 1 0-9.334zm0 1.867a2.8 2.8 0 1 0 0 5.6 2.8 2.8 0 0 0 0-5.6z"/></svg>