<svg xmlns="http://www.w3.org/2000/svg" width="87" height="112" fill="none"><path fill="#fff" d="m7.436 82.531 36.262 18.452 34.886-18.452V10.374H7.436V82.53Z"/><path fill="#F2F3F2" d="M79.318 10.65 6.702 83.816l37.639 18.636 34.977-17.902V10.649Z"/><path fill="#DCDEDC" d="M5.05 34.426v49.666l1.285.643 36.262 18.452 1.102.551 1.101-.551 34.977-18.452 1.285-.643V7.987H5.05v26.44Zm2.386 48.289V10.374h71.24v72.34l-34.977 18.453L7.436 82.715Z"/><path fill="#FF492C" d="M43.056 11.567c.367 0 .734 0 1.101.092l-1.101 2.112c-1.653-.092-3.122 1.193-3.213 2.846-.092 1.652 1.193 3.12 2.845 3.213h.368c.734 0 1.469-.276 2.02-.735l1.193 2.02a5.564 5.564 0 0 1-3.213 1.01c-2.938.092-5.417-2.112-5.508-5.05-.092-2.937 2.111-5.416 5.049-5.508h.459Zm3.764 4.499 1.377 2.295-1.377 2.203-1.286-2.203h-2.662l1.377-2.295h2.57Zm-2.204-.826c0-.368.092-.735.276-1.01.183-.276.55-.551.826-.735l.184-.091c.367-.184.459-.276.459-.46 0-.183-.276-.367-.46-.367-.367 0-.642.184-.826.551l-.459-.459c.092-.184.276-.367.46-.55.275-.184.55-.184.826-.184.275 0 .642.091.826.275.183.184.367.459.367.734 0 .46-.275.827-.826 1.01l-.276.184c-.275.184-.459.275-.55.55h1.652v.643l-2.479-.091Zm-1.56 11.475 8.721-4.957V7.988H34.243v13.678l8.813 5.049Zm39.75 32.498H3.305L.367 65.64l2.938 6.427h79.501l2.846-6.427-2.846-6.426Z"/><path fill="#252530" d="M17.525 55.082a.187.187 0 0 1-.137-.055.22.22 0 0 1-.056-.147V43.717a.22.22 0 0 1 .056-.147.186.186 0 0 1 .137-.055h1.937c.055 0 .101.018.138.055a.202.202 0 0 1 .064.147v9.281c0 .055.028.083.083.083h5.398a.22.22 0 0 1 .147.055.22.22 0 0 1 .055.146v1.598a.22.22 0 0 1-.055.147.22.22 0 0 1-.147.055h-7.62Zm16.626-5.123c.067.416.089.885.064 1.405-.006.135-.076.202-.211.202H28.9c-.068 0-.089.027-.064.082.03.22.088.441.174.661.287.613.872.919 1.753.919.704-.007 1.261-.291 1.671-.854.043-.068.092-.101.147-.101.037 0 .076.021.12.064l1.184 1.175c.055.055.082.104.082.147 0 .024-.021.07-.064.138a3.64 3.64 0 0 1-1.405 1.046 4.714 4.714 0 0 1-1.881.367c-.95 0-1.75-.214-2.406-.642-.655-.429-1.126-1.028-1.414-1.8-.232-.55-.348-1.273-.348-2.166 0-.606.082-1.138.247-1.597.257-.784.701-1.408 1.332-1.873.636-.46 1.389-.689 2.258-.689 1.102 0 1.986.319 2.653.955.667.636 1.071 1.49 1.212 2.561Zm-3.847-1.505c-.697 0-1.156.324-1.377.973-.043.147-.08.324-.11.532 0 .055.028.083.083.083h2.855c.067 0 .089-.028.064-.083a11.992 11.992 0 0 0-.082-.459 1.443 1.443 0 0 0-.515-.77c-.25-.184-.557-.276-.918-.276Zm8.657-2.002c.716 0 1.356.126 1.92.377.562.245 1 .584 1.312 1.019.312.428.468.906.468 1.432v5.6a.22.22 0 0 1-.055.147.187.187 0 0 1-.138.055h-1.937a.187.187 0 0 1-.137-.055.202.202 0 0 1-.065-.147v-.542c0-.03-.009-.052-.027-.064-.025-.012-.046-.003-.065.028-.465.605-1.208.908-2.23.908-.863 0-1.558-.208-2.084-.624-.533-.416-.799-1.034-.799-1.854 0-.845.3-1.503.9-1.974.593-.465 1.441-.698 2.543-.698h1.68c.055 0 .082-.027.082-.082v-.368c0-.36-.11-.645-.33-.853-.22-.202-.551-.303-.992-.303-.336 0-.618.06-.844.183a.862.862 0 0 0-.441.514c-.03.123-.101.178-.211.166l-2.001-.267c-.135-.024-.196-.073-.184-.146.043-.466.226-.885.55-1.258.325-.373.757-.664 1.295-.872.533-.215 1.13-.322 1.79-.322Zm-.33 7.023c.471 0 .872-.125 1.203-.376.33-.251.495-.575.495-.973v-.597c0-.055-.027-.083-.082-.083h-1.185c-.495 0-.884.095-1.165.285a.887.887 0 0 0-.423.79c0 .3.104.532.312.697.208.172.49.257.845.257Zm10.943-9.758a.22.22 0 0 1 .055-.147.186.186 0 0 1 .138-.055h1.937c.055 0 .1.018.137.055a.22.22 0 0 1 .056.147V54.88a.22.22 0 0 1-.056.147.187.187 0 0 1-.137.055h-1.937a.187.187 0 0 1-.138-.055.22.22 0 0 1-.055-.147v-.542c0-.03-.012-.049-.037-.055a.064.064 0 0 0-.064.019c-.465.605-1.099.908-1.9.908-.772 0-1.436-.214-1.993-.642-.557-.429-.957-1.016-1.202-1.763-.184-.575-.276-1.242-.276-2.001 0-.784.098-1.466.294-2.047.257-.71.658-1.27 1.203-1.68.544-.416 1.218-.625 2.02-.625.795 0 1.413.276 1.854.827.018.036.04.049.064.036.025-.012.037-.033.037-.064v-3.534Zm-.349 8.785c.22-.404.33-.96.33-1.67 0-.735-.122-1.313-.367-1.736-.25-.428-.618-.642-1.101-.642-.52 0-.912.214-1.176.642-.275.435-.413 1.02-.413 1.754 0 .66.117 1.212.35 1.652.275.478.682.716 1.22.716.496 0 .882-.238 1.157-.716Zm11.944-2.543c.067.416.088.885.064 1.405-.006.135-.077.202-.211.202h-5.105c-.067 0-.088.027-.064.082.03.22.089.441.175.661.287.613.872.919 1.753.919.704-.007 1.26-.291 1.67-.854.044-.068.093-.101.148-.101.037 0 .076.021.12.064l1.183 1.175c.055.055.083.104.083.147 0 .024-.021.07-.064.138a3.64 3.64 0 0 1-1.405 1.046 4.714 4.714 0 0 1-1.882.367c-.949 0-1.75-.214-2.405-.642-.655-.429-1.126-1.028-1.414-1.8-.232-.55-.349-1.273-.349-2.166 0-.606.083-1.138.248-1.597.257-.784.7-1.408 1.331-1.873.637-.46 1.39-.689 2.259-.689 1.101 0 1.986.319 2.653.955.667.636 1.07 1.49 1.212 2.561Zm-3.847-1.505c-.698 0-1.157.324-1.377.973-.043.147-.08.324-.11.532 0 .055.027.083.082.083h2.855c.068 0 .09-.028.065-.083a11.992 11.992 0 0 0-.083-.459 1.443 1.443 0 0 0-.514-.77c-.25-.184-.557-.276-.918-.276Zm9.584-1.983c.398 0 .71.076.937.23.091.048.125.13.1.247l-.348 1.891c-.006.129-.083.166-.23.11a1.83 1.83 0 0 0-.578-.082c-.086 0-.205.012-.358.037-.398.03-.734.174-1.01.431-.275.263-.413.609-.413 1.037v4.508a.22.22 0 0 1-.055.147.22.22 0 0 1-.147.055h-1.928a.22.22 0 0 1-.147-.055.22.22 0 0 1-.055-.147v-8.097c0-.055.019-.101.055-.138a.22.22 0 0 1 .147-.055h1.928a.22.22 0 0 1 .147.055.187.187 0 0 1 .055.138v.633c0 .03.01.052.028.065.024.012.042.006.055-.019.453-.66 1.058-.991 1.817-.991Z"/><path fill="#fff" d="M26.384 63.601a.1.1 0 0 1-.028.074.114.114 0 0 1-.082.036h-3.13c-.031 0-.047.016-.047.046v1.717c0 .03.016.046.046.046h2.103c.03 0 .058.009.082.027a.134.134 0 0 1 .028.083v.698c0 .03-.01.058-.028.082a.134.134 0 0 1-.082.028h-2.103c-.03 0-.046.015-.046.046v1.772c0 .03.016.046.046.046h3.13c.031 0 .059.012.083.036a.099.099 0 0 1 .028.074v.697a.1.1 0 0 1-.028.074.114.114 0 0 1-.082.036h-4.131a.087.087 0 0 1-.074-.036.087.087 0 0 1-.037-.074v-6.206c0-.03.013-.055.037-.073a.087.087 0 0 1 .074-.037h4.13c.031 0 .059.013.083.037a.099.099 0 0 1 .028.073v.698Zm3.231.854c.496 0 .894.147 1.194.44.294.294.44.695.44 1.203v3.011c0 .03-.012.055-.036.074a.087.087 0 0 1-.074.036h-.844a.114.114 0 0 1-.083-.036.1.1 0 0 1-.027-.074v-2.79c0-.282-.08-.511-.24-.689-.158-.171-.37-.257-.633-.257a.853.853 0 0 0-.642.257c-.16.171-.239.398-.239.68v2.8a.1.1 0 0 1-.027.073.114.114 0 0 1-.083.036h-.845a.087.087 0 0 1-.073-.036.087.087 0 0 1-.037-.074v-4.47c0-.031.012-.059.037-.083a.099.099 0 0 1 .073-.028h.845c.03 0 .058.01.083.028a.134.134 0 0 1 .027.082v.294c0 .019.006.03.018.037.013.006.022 0 .028-.018.251-.33.63-.496 1.138-.496Zm5.233.826c0 .03-.012.055-.036.074a.087.087 0 0 1-.074.036h-.936c-.031 0-.046.016-.046.046v2.213c0 .232.049.4.147.505.104.104.266.156.486.156h.276c.03 0 .055.009.073.027a.114.114 0 0 1 .037.083v.688c0 .068-.037.107-.11.12l-.478.009c-.483 0-.844-.083-1.083-.248-.239-.165-.361-.477-.367-.936v-2.617c0-.03-.016-.046-.046-.046h-.523a.114.114 0 0 1-.083-.036.1.1 0 0 1-.028-.074v-.643c0-.03.01-.058.028-.082a.134.134 0 0 1 .083-.028h.523c.03 0 .046-.015.046-.046v-1.074c0-.03.009-.058.027-.082a.135.135 0 0 1 .083-.028h.799a.1.1 0 0 1 .073.028.114.114 0 0 1 .037.082v1.075c0 .03.015.045.046.045h.936a.1.1 0 0 1 .074.028.114.114 0 0 1 .036.082v.643Zm4.81 1.065c.025.153.037.324.037.514l-.009.285c0 .073-.036.11-.11.11h-2.873c-.031 0-.046.015-.046.046.018.202.046.34.082.413.147.44.505.664 1.075.67.416 0 .746-.171.99-.514.025-.037.056-.055.093-.055.024 0 .046.01.064.028l.57.468c.054.042.063.091.027.146-.19.27-.44.478-.753.625-.318.147-.67.22-1.056.22-.477 0-.884-.107-1.22-.321a1.857 1.857 0 0 1-.726-.9c-.14-.33-.211-.79-.211-1.377 0-.355.037-.642.11-.863.122-.428.355-.768.698-1.019.336-.245.743-.367 1.22-.367 1.206 0 1.886.63 2.039 1.891Zm-2.037-.973a.913.913 0 0 0-.57.174.885.885 0 0 0-.312.469 1.592 1.592 0 0 0-.073.403c-.012.031 0 .046.037.046h1.863c.03 0 .046-.015.046-.046a1.736 1.736 0 0 0-.055-.348.9.9 0 0 0-.321-.514 1.004 1.004 0 0 0-.615-.184Zm5.232-.9c.196 0 .368.04.515.12.048.024.067.07.055.137l-.156.827c-.007.073-.05.094-.129.064a1.017 1.017 0 0 0-.321-.046c-.08 0-.141.003-.184.01a.958.958 0 0 0-.643.265.895.895 0 0 0-.257.661v2.598a.1.1 0 0 1-.027.074.114.114 0 0 1-.083.036h-.844a.087.087 0 0 1-.074-.036.087.087 0 0 1-.036-.074v-4.47c0-.031.012-.059.036-.083a.099.099 0 0 1 .074-.028h.844c.03 0 .058.01.083.028a.134.134 0 0 1 .027.082v.414c0 .024.004.036.01.036.012.007.024 0 .036-.018.257-.398.615-.597 1.074-.597Zm5.242 1.267c.11.312.166.695.166 1.148 0 .434-.052.808-.156 1.12-.135.404-.35.719-.643.945-.3.227-.676.34-1.13.34-.434 0-.783-.156-1.046-.468-.012-.013-.024-.016-.037-.01-.012.007-.018.019-.018.037v1.992a.1.1 0 0 1-.027.074.114.114 0 0 1-.083.037h-.845a.087.087 0 0 1-.073-.037.087.087 0 0 1-.037-.074v-6.206c0-.03.013-.058.037-.082a.099.099 0 0 1 .073-.028h.845c.03 0 .058.01.083.028a.134.134 0 0 1 .027.082v.276c0 .018.006.03.018.037.013.006.025 0 .037-.019.27-.318.621-.477 1.056-.477.434 0 .802.113 1.102.34.3.226.517.541.651.945Zm-1.193 2.25c.184-.282.275-.655.275-1.12 0-.447-.073-.8-.22-1.056a.841.841 0 0 0-.78-.45c-.319 0-.557.147-.716.44-.141.24-.212.594-.212 1.065 0 .484.077.851.23 1.102.16.27.389.404.689.404.324 0 .569-.129.734-.386Zm4.572-3.517c.196 0 .367.04.514.12.049.024.067.07.055.137l-.156.827c-.006.073-.05.094-.129.064a1.017 1.017 0 0 0-.32-.046c-.08 0-.142.003-.184.01a.958.958 0 0 0-.643.265.895.895 0 0 0-.257.661v2.598a.1.1 0 0 1-.028.074.114.114 0 0 1-.082.036h-.845a.087.087 0 0 1-.073-.036.087.087 0 0 1-.037-.074v-4.47c0-.031.012-.059.037-.083a.099.099 0 0 1 .073-.028h.845c.03 0 .058.01.082.028a.134.134 0 0 1 .028.082v.414c0 .024.003.036.009.036.012.007.024 0 .037-.018.257-.398.615-.597 1.074-.597Zm1.873-.587a.634.634 0 0 1-.469-.184.634.634 0 0 1-.183-.468c0-.19.061-.346.183-.468a.634.634 0 0 1 .469-.184c.19 0 .345.061.468.184a.634.634 0 0 1 .183.468c0 .19-.06.346-.183.468a.634.634 0 0 1-.468.184Zm-.441 5.333a.087.087 0 0 1-.073-.036.087.087 0 0 1-.037-.074v-4.48c0-.03.012-.055.037-.073a.087.087 0 0 1 .073-.037h.845c.03 0 .058.012.082.037a.1.1 0 0 1 .028.073v4.48a.1.1 0 0 1-.028.074.114.114 0 0 1-.082.036h-.845Zm3.92.056c-.386 0-.725-.059-1.02-.175a1.522 1.522 0 0 1-.67-.468 1.021 1.021 0 0 1-.238-.661v-.083c0-.03.01-.058.028-.082a.135.135 0 0 1 .082-.028h.808c.03 0 .058.01.083.028a.134.134 0 0 1 .027.082v.019c0 .153.083.287.248.404.172.11.386.165.643.165.245 0 .443-.05.596-.147.154-.104.23-.233.23-.386a.35.35 0 0 0-.193-.32 3.142 3.142 0 0 0-.606-.221l-.349-.11a5.168 5.168 0 0 1-.79-.294 1.555 1.555 0 0 1-.54-.432c-.148-.177-.221-.407-.221-.688 0-.429.168-.768.505-1.02.337-.256.78-.385 1.331-.385.373 0 .7.058.982.175.282.122.5.287.652.495.153.215.23.456.23.726 0 .03-.01.058-.028.082a.134.134 0 0 1-.083.028h-.78a.134.134 0 0 1-.083-.028.134.134 0 0 1-.027-.082c0-.16-.077-.291-.23-.395-.159-.11-.373-.165-.642-.165-.239 0-.432.043-.578.128-.154.092-.23.218-.23.377 0 .147.07.257.211.33.147.08.389.165.725.257l.202.055c.325.098.597.196.817.294.22.104.407.245.56.422.153.184.23.42.23.707 0 .435-.172.774-.514 1.02-.343.25-.799.376-1.368.376Zm6.738-2.929c.025.153.037.324.037.514l-.01.285c0 .073-.036.11-.11.11h-2.873c-.03 0-.046.015-.046.046.019.202.046.34.083.413.147.44.505.664 1.074.67.416 0 .747-.171.992-.514.024-.037.055-.055.091-.055.025 0 .046.01.065.028l.569.468c.055.042.064.091.027.146-.19.27-.443.478-.762.625-.312.147-.66.22-1.046.22-.478 0-.885-.107-1.221-.321a1.857 1.857 0 0 1-.725-.9c-.141-.33-.212-.79-.212-1.377 0-.355.037-.642.11-.863.123-.428.352-.768.69-1.019.342-.245.752-.367 1.23-.367 1.205 0 1.884.63 2.037 1.891Zm-2.038-.973a.913.913 0 0 0-.569.174.885.885 0 0 0-.312.469 1.593 1.593 0 0 0-.074.403c-.012.031 0 .046.037.046h1.864c.03 0 .046-.015.046-.046a1.727 1.727 0 0 0-.055-.348.88.88 0 0 0-.33-.514.964.964 0 0 0-.607-.184Z"/><path fill="#252530" d="M30.433 82.237c-.49 0-.918-.08-1.285-.238a1.826 1.826 0 0 1-.845-.67 1.712 1.712 0 0 1-.303-1.01v-.202c0-.031.012-.055.037-.074a.087.087 0 0 1 .073-.037h1.047c.03 0 .058.013.082.037a.1.1 0 0 1 .028.074v.137c0 .245.113.45.34.615.226.172.532.257.918.257.324 0 .566-.067.725-.202a.661.661 0 0 0 .238-.514.498.498 0 0 0-.146-.367 1.189 1.189 0 0 0-.404-.266 9.813 9.813 0 0 0-.799-.321 8.133 8.133 0 0 1-1.046-.432 2.042 2.042 0 0 1-.707-.606c-.196-.25-.294-.563-.294-.936 0-.367.095-.689.284-.964.19-.275.453-.487.79-.633.337-.147.725-.22 1.166-.22.465 0 .878.082 1.24.247.366.165.654.398.862.698.202.293.303.636.303 1.028v.138c0 .03-.01.055-.028.073a.114.114 0 0 1-.082.037H31.57a.087.087 0 0 1-.073-.037.087.087 0 0 1-.037-.073v-.074a.852.852 0 0 0-.312-.66c-.214-.178-.505-.267-.872-.267-.288 0-.514.061-.68.184a.602.602 0 0 0-.238.504.54.54 0 0 0 .147.386c.091.104.232.196.422.275.183.086.471.2.863.34.434.16.774.3 1.019.422.25.123.477.303.68.542.195.245.293.56.293.946 0 .575-.211 1.028-.633 1.358-.423.337-.995.505-1.717.505Zm5.912-6.509c.404 0 .759.083 1.065.248.306.166.545.398.716.698.165.306.248.655.248 1.047 0 .385-.086.725-.257 1.019a1.837 1.837 0 0 1-.744.688c-.312.16-.673.239-1.083.239h-1.304c-.03 0-.046.015-.046.046v2.34c0 .031-.012.056-.036.074a.087.087 0 0 1-.074.037h-1.074a.114.114 0 0 1-.083-.037.1.1 0 0 1-.027-.073v-6.215c0-.031.01-.058.027-.083a.134.134 0 0 1 .083-.028h2.589Zm-.193 2.901c.282 0 .508-.082.68-.247.17-.16.257-.37.257-.634 0-.27-.086-.486-.258-.652-.17-.165-.397-.248-.679-.248h-1.166c-.03 0-.046.016-.046.046v1.69c0 .03.016.045.046.045h1.166Zm6.546 3.535a.13.13 0 0 1-.129-.083l-1.147-2.543c-.013-.024-.031-.036-.055-.036h-.854c-.03 0-.046.015-.046.046v2.506c0 .03-.012.055-.037.073a.087.087 0 0 1-.073.037h-1.074a.114.114 0 0 1-.083-.037.099.099 0 0 1-.028-.073v-6.206c0-.03.01-.055.028-.074a.114.114 0 0 1 .083-.036h2.625c.392 0 .735.08 1.028.238.3.16.53.386.689.68.165.293.248.633.248 1.019 0 .416-.104.77-.312 1.065-.208.3-.5.51-.873.633-.03.012-.04.034-.027.064l1.248 2.598a.142.142 0 0 1 .019.055c0 .05-.034.074-.101.074h-1.13Zm-2.185-5.316c-.03 0-.046.016-.046.046v1.57c0 .03.015.046.046.046h1.202c.257 0 .465-.076.625-.23a.776.776 0 0 0 .247-.596.805.805 0 0 0-.247-.606c-.16-.153-.368-.23-.625-.23h-1.202Zm4.406 5.316a.087.087 0 0 1-.073-.037.087.087 0 0 1-.037-.073v-6.206c0-.03.012-.055.037-.074a.087.087 0 0 1 .073-.036h1.074c.031 0 .059.012.083.036a.1.1 0 0 1 .028.074v6.206a.1.1 0 0 1-.028.073.114.114 0 0 1-.083.037H44.92Zm5.995-6.316c0-.03.012-.055.037-.074a.087.087 0 0 1 .073-.036h1.074c.031 0 .059.012.083.036a.1.1 0 0 1 .028.074v6.206a.1.1 0 0 1-.028.073.114.114 0 0 1-.083.037h-1.037c-.061 0-.104-.025-.129-.074l-2.377-3.929c-.013-.018-.025-.024-.037-.018-.012 0-.018.012-.018.037l.018 3.874c0 .03-.01.055-.028.073a.114.114 0 0 1-.082.037h-1.074a.087.087 0 0 1-.074-.037.087.087 0 0 1-.036-.073v-6.206c0-.03.012-.055.036-.074a.087.087 0 0 1 .074-.036h1.037c.061 0 .104.024.129.073l2.368 3.91c.012.02.025.025.037.02.012 0 .018-.013.018-.037l-.009-3.856Zm4.673 6.39c-.471 0-.888-.096-1.249-.285a2.04 2.04 0 0 1-.835-.79 2.29 2.29 0 0 1-.303-1.184v-2.056c0-.447.101-.842.303-1.185.196-.343.474-.609.835-.798a2.717 2.717 0 0 1 1.249-.276c.465 0 .878.092 1.24.276.354.183.633.434.835.752.196.313.293.661.293 1.047v.064a.1.1 0 0 1-.027.074.114.114 0 0 1-.083.036h-1.074a.087.087 0 0 1-.073-.036.087.087 0 0 1-.037-.074v-.027a.944.944 0 0 0-.294-.707c-.196-.196-.456-.294-.78-.294-.33 0-.594.101-.79.303-.202.208-.303.477-.303.808v2.13c0 .33.108.596.322.798.214.208.486.313.817.313.318 0 .572-.086.762-.258.19-.165.284-.397.284-.697v-.413c0-.031-.015-.046-.046-.046h-1.028a.087.087 0 0 1-.073-.037.087.087 0 0 1-.037-.073v-.845c0-.03.012-.055.037-.073a.087.087 0 0 1 .073-.037h2.24c.03 0 .058.012.083.037a.1.1 0 0 1 .027.073v1.212c0 .465-.097.869-.293 1.212a1.977 1.977 0 0 1-.827.79 2.796 2.796 0 0 1-1.248.265Zm-20.995 7.39c-.013.012-.016.024-.01.036.006.012.019.019.037.019h2.488c.03 0 .058.009.083.027a.134.134 0 0 1 .027.083v.89c0 .03-.01.055-.027.074a.114.114 0 0 1-.083.036h-4.131a.114.114 0 0 1-.083-.036.1.1 0 0 1-.027-.074v-.844c0-.055.018-.101.055-.138.3-.294.606-.612.918-.955.312-.349.508-.566.587-.652.172-.202.346-.394.523-.578.557-.618.836-1.077.836-1.377a.692.692 0 0 0-.23-.532c-.153-.135-.352-.203-.596-.203-.245 0-.444.068-.597.203a.714.714 0 0 0-.23.55v.23c0 .03-.012.058-.036.082a.099.099 0 0 1-.074.028H32.94a.099.099 0 0 1-.073-.028.114.114 0 0 1-.037-.082v-.432a1.6 1.6 0 0 1 .312-.881c.19-.25.44-.444.753-.578a2.706 2.706 0 0 1 1.065-.202c.434 0 .814.08 1.138.238.318.166.566.386.744.661.171.276.257.582.257.918 0 .257-.065.52-.193.79-.129.27-.321.56-.578.872-.19.239-.395.474-.615.707-.22.233-.548.57-.983 1.01l-.137.138Zm5.609 1.266c-.674 0-1.206-.19-1.598-.569-.391-.373-.587-.884-.587-1.533v-2.424c0-.636.196-1.141.587-1.514.392-.374.924-.56 1.598-.56.673 0 1.208.186 1.606.56.392.373.588.878.588 1.514v2.424c0 .649-.196 1.16-.588 1.533-.398.38-.933.57-1.606.57Zm0-1.11c.275 0 .495-.086.66-.258.16-.165.24-.388.24-.67v-2.524c0-.282-.08-.505-.24-.67-.165-.172-.385-.258-.66-.258-.27 0-.484.086-.643.258-.165.165-.248.388-.248.67v2.524c0 .282.083.505.248.67.16.172.373.258.643.258Zm4.764-.157c-.012.013-.015.025-.009.037.006.012.018.019.037.019h2.488c.03 0 .058.009.082.027a.135.135 0 0 1 .028.083v.89a.1.1 0 0 1-.028.074.114.114 0 0 1-.082.036h-4.132a.087.087 0 0 1-.073-.036.087.087 0 0 1-.037-.074v-.844c0-.055.019-.101.055-.138.3-.294.606-.612.919-.955.312-.349.507-.566.587-.652.171-.202.346-.394.523-.578.557-.618.836-1.077.836-1.377a.692.692 0 0 0-.23-.532c-.153-.135-.352-.203-.596-.203-.245 0-.444.068-.597.203a.714.714 0 0 0-.23.55v.23c0 .03-.009.058-.027.082a.134.134 0 0 1-.083.028h-1.083a.1.1 0 0 1-.074-.028.114.114 0 0 1-.036-.082v-.432a1.6 1.6 0 0 1 .312-.881c.19-.25.444-.444.762-.578a2.64 2.64 0 0 1 1.056-.202c.434 0 .813.08 1.138.238.318.166.566.386.743.661.172.276.258.582.258.918 0 .257-.065.52-.193.79-.129.27-.322.56-.579.872-.19.239-.394.474-.615.707-.22.233-.547.57-.982 1.01l-.138.138Zm8.015-1.634c.03 0 .058.01.082.028a.134.134 0 0 1 .028.082v.928c0 .03-.01.058-.028.082a.135.135 0 0 1-.082.028h-.395c-.03 0-.046.015-.046.046v1.496a.1.1 0 0 1-.028.074.114.114 0 0 1-.082.036h-1.074a.087.087 0 0 1-.074-.036.087.087 0 0 1-.036-.074v-1.496c0-.03-.016-.046-.046-.046H48.38a.1.1 0 0 1-.073-.028.114.114 0 0 1-.037-.082v-.735c0-.036.01-.082.028-.137l1.652-3.71a.13.13 0 0 1 .129-.082h1.147c.043 0 .074.012.092.037.012.018.01.049-.01.092l-1.532 3.442a.04.04 0 0 0 0 .037c.006.012.015.018.027.018H51.2c.03 0 .046-.015.046-.045v-1.139c0-.03.012-.055.036-.073a.087.087 0 0 1 .074-.037h1.074c.03 0 .058.012.082.037a.1.1 0 0 1 .028.073v1.139c0 .03.015.045.046.045h.395Z"/></svg>