<svg xmlns="http://www.w3.org/2000/svg" width="48" height="48" fill="none"><path fill="#198038" fill-rule="evenodd" d="M24 9.54c-2.832-2.595-5.733-4.018-8.508-4.412-3.144-.447-6.002.451-8.195 2.257-4.367 3.597-5.9 10.557-2.646 17.255 4.14 8.522 10.369 14.94 18.663 19.208a1.5 1.5 0 0 0 1.373 0C32.98 39.58 39.21 33.162 43.35 24.64c3.253-6.698 1.721-13.658-2.646-17.255-2.193-1.806-5.051-2.704-8.196-2.257-2.774.394-5.675 1.817-8.508 4.412Zm-14.796.161c-3.133 2.58-4.6 7.974-1.854 13.628 3.745 7.712 9.287 13.528 16.65 17.49 7.363-3.962 12.906-9.778 16.651-17.49 2.747-5.654 1.279-11.048-1.854-13.628-1.557-1.282-3.574-1.929-5.867-1.603-2.31.328-5.023 1.665-7.854 4.579a1.5 1.5 0 0 1-2.152 0c-2.83-2.914-5.543-4.25-7.853-4.579-2.293-.326-4.31.32-5.867 1.603Z" clip-rule="evenodd"/></svg>