<svg xmlns="http://www.w3.org/2000/svg" width="87" height="112" fill="none"><path fill="#fff" d="m8.065 82.531 36.262 18.453 34.885-18.453V10.374H8.065V82.53Z"/><path fill="#F2F3F2" d="M79.946 10.65 7.33 83.815l37.64 18.636 34.976-17.901V10.649Z"/><path fill="#DCDEDC" d="M5.678 34.426v49.666l1.285.643 36.262 18.452 1.102.551 1.102-.551 34.977-18.452 1.285-.643V7.987H5.678v26.44Zm2.387 48.289V10.374h71.24v72.34l-34.978 18.453L8.065 82.715Z"/><path fill="#FF492C" d="M43.684 11.567c.367 0 .734 0 1.102.092l-1.102 2.112c-1.652-.092-3.121 1.193-3.213 2.846-.092 1.652 1.193 3.12 2.846 3.213h.367c.734 0 1.469-.276 2.02-.735l1.193 2.02a5.565 5.565 0 0 1-3.213 1.01c-2.938.092-5.416-2.112-5.508-5.05-.092-2.937 2.111-5.416 5.049-5.508h.459Zm3.764 4.499 1.377 2.295-1.377 2.203-1.285-2.203H43.5l1.377-2.295h2.57Zm-2.203-.826c0-.368.091-.735.275-1.01.184-.276.55-.551.826-.735l.184-.091c.367-.184.459-.276.459-.46 0-.183-.275-.367-.46-.367-.366 0-.642.184-.825.551l-.46-.459c.092-.184.276-.367.46-.55.275-.184.55-.184.826-.184.275 0 .642.091.826.275.184.184.367.459.367.734 0 .46-.275.827-.826 1.01l-.275.184c-.276.184-.46.275-.551.55h1.652v.643l-2.478-.091Zm-1.561 11.475 8.721-4.957V7.988H34.871v13.678l8.813 5.049Z"/><path fill="#2690CE" d="M83.435 59.213H3.934L.996 65.64l2.938 6.427h79.501l2.846-6.427-2.846-6.426Z"/><path fill="#252530" d="M10.515 55.082a.114.114 0 0 1-.082-.037.114.114 0 0 1-.037-.083v-6.83c0-.03.012-.058.037-.082a.114.114 0 0 1 .082-.037H11.7c.036 0 .064.012.082.037a.114.114 0 0 1 .037.082v6.83c0 .031-.012.058-.037.083-.018.024-.046.037-.082.037h-1.185Zm8.198-5.27c.527 0 .94.16 1.24.478.294.312.44.755.44 1.33v3.342c0 .031-.012.058-.036.083a.114.114 0 0 1-.083.037H19.09a.114.114 0 0 1-.083-.037.114.114 0 0 1-.037-.083v-3.03c0-.275-.07-.495-.21-.66a.722.722 0 0 0-.57-.239.74.74 0 0 0-.57.239c-.152.165-.229.382-.229.652v3.038c0 .031-.009.058-.027.083a.125.125 0 0 1-.092.037h-1.166a.124.124 0 0 1-.092-.037.114.114 0 0 1-.036-.083v-3.03c0-.268-.074-.486-.22-.651a.737.737 0 0 0-.58-.248.76.76 0 0 0-.532.193.79.79 0 0 0-.257.532v3.204a.125.125 0 0 1-.129.12h-1.174a.125.125 0 0 1-.092-.037.114.114 0 0 1-.037-.083v-4.948c0-.037.012-.067.037-.092a.149.149 0 0 1 .092-.027h1.175c.037 0 .067.009.092.027a.124.124 0 0 1 .036.092v.395c0 .018.007.03.019.037.012.006.024 0 .037-.019.275-.41.703-.615 1.285-.615.336 0 .63.07.881.211s.444.343.578.606c.025.037.05.037.074 0 .147-.275.349-.48.606-.615.25-.135.532-.202.844-.202Zm7.317 1.469c.122.349.184.753.184 1.212 0 .465-.065.887-.193 1.267-.16.428-.404.77-.735 1.028-.33.25-.743.376-1.239.376-.483 0-.86-.168-1.129-.505-.012-.018-.024-.024-.037-.018-.018.006-.027.018-.027.037v2.157c0 .037-.01.068-.028.092a.125.125 0 0 1-.092.037H21.56a.125.125 0 0 1-.091-.037.124.124 0 0 1-.037-.092v-6.82c0-.038.012-.068.037-.093a.149.149 0 0 1 .091-.027h1.175c.037 0 .068.009.092.027a.149.149 0 0 1 .028.092v.33c0 .019.009.031.027.037.012.007.025 0 .037-.018.282-.367.673-.55 1.175-.55.465 0 .866.128 1.203.385.342.263.587.624.734 1.083Zm-1.542 2.268c.165-.264.248-.622.248-1.075 0-.422-.07-.758-.212-1.01-.152-.287-.4-.43-.743-.43-.312 0-.545.143-.698.43-.14.245-.21.585-.21 1.02 0 .453.072.804.22 1.055.152.27.382.404.688.404.3 0 .535-.131.707-.394Zm2.763 1.533a.114.114 0 0 1-.082-.037.114.114 0 0 1-.037-.083v-6.83c0-.03.012-.058.037-.082a.114.114 0 0 1 .082-.037h1.184c.03 0 .059.012.083.037a.114.114 0 0 1 .037.082v6.83c0 .031-.013.058-.037.083a.114.114 0 0 1-.083.037h-1.184Zm6.94-3.13c.037.256.05.544.037.862-.006.08-.049.12-.128.12h-3.122c-.043 0-.055.015-.036.045.018.135.055.27.11.404.171.38.526.57 1.065.57.434-.007.774-.181 1.019-.524.03-.043.06-.064.091-.064.025 0 .05.012.074.037l.725.725c.037.03.055.058.055.083 0 .018-.015.045-.046.082-.22.276-.505.49-.853.643a2.85 2.85 0 0 1-1.157.23c-.575 0-1.065-.132-1.469-.395a2.22 2.22 0 0 1-.863-1.102c-.14-.337-.211-.777-.211-1.322 0-.373.052-.7.156-.982a2.2 2.2 0 0 1 .808-1.139c.385-.281.844-.422 1.377-.422.673 0 1.215.196 1.625.588.404.385.652.905.743 1.56Zm-2.359-.919c-.422 0-.7.2-.835.597a3.762 3.762 0 0 0-.074.321c0 .037.019.055.055.055h1.745c.042 0 .058-.018.046-.055a8.952 8.952 0 0 0-.056-.284.866.866 0 0 0-.32-.469.908.908 0 0 0-.56-.165Zm9.033-1.22c.527 0 .937.158 1.23.477.294.312.441.755.441 1.33v3.342c0 .031-.009.058-.027.083a.125.125 0 0 1-.092.037h-1.175a.125.125 0 0 1-.092-.037.114.114 0 0 1-.037-.083v-3.03c0-.275-.07-.495-.21-.66a.71.71 0 0 0-.56-.239.75.75 0 0 0-.58.239c-.146.165-.22.382-.22.652v3.038c0 .031-.012.058-.036.083a.114.114 0 0 1-.083.037H38.25c-.037 0-.064-.013-.083-.037a.114.114 0 0 1-.036-.083v-3.03c0-.268-.074-.486-.22-.651a.755.755 0 0 0-.579-.248.793.793 0 0 0-.542.193.79.79 0 0 0-.257.532v3.204c0 .031-.012.058-.036.083a.114.114 0 0 1-.083.037h-1.184a.114.114 0 0 1-.083-.037.114.114 0 0 1-.037-.083v-4.948c0-.037.013-.067.037-.092a.134.134 0 0 1 .083-.027h1.184c.03 0 .058.009.083.027a.125.125 0 0 1 .036.092v.395c0 .018.007.03.019.037.012.006.027 0 .046-.019.275-.41.7-.615 1.276-.615.336 0 .63.07.881.211.257.141.453.343.588.606.018.037.04.037.064 0 .153-.275.355-.48.606-.615.25-.135.535-.202.853-.202ZM48.1 51.95c.042.257.058.545.045.863-.006.08-.049.12-.128.12h-3.121c-.043 0-.059.015-.046.045.024.135.061.27.11.404.177.38.535.57 1.074.57a1.22 1.22 0 0 0 1.019-.524c.025-.043.055-.064.092-.064.018 0 .043.012.073.037l.725.725c.031.03.046.058.046.083 0 .018-.012.045-.036.082-.22.276-.508.49-.863.643-.35.153-.732.23-1.148.23-.575 0-1.065-.132-1.469-.395a2.22 2.22 0 0 1-.863-1.102c-.14-.337-.21-.777-.21-1.322 0-.373.048-.7.146-.982a2.25 2.25 0 0 1 .817-1.139c.386-.281.845-.422 1.377-.422.673 0 1.215.196 1.625.588.404.385.649.905.735 1.56Zm-2.35-.918c-.423 0-.701.2-.836.597a3.766 3.766 0 0 0-.073.321c0 .037.018.055.055.055h1.744c.043 0 .055-.018.037-.055l-.046-.284a.866.866 0 0 0-.322-.469.908.908 0 0 0-.56-.165Zm5.976-1.22c.538 0 .973.164 1.303.495.33.33.496.777.496 1.34v3.314c0 .031-.012.058-.036.083-.019.024-.046.037-.083.037h-1.184a.114.114 0 0 1-.083-.037.114.114 0 0 1-.037-.083v-3.02c0-.27-.076-.49-.23-.661-.146-.165-.345-.248-.596-.248a.787.787 0 0 0-.606.248c-.147.171-.22.392-.22.661v3.02c0 .031-.013.058-.037.083a.124.124 0 0 1-.092.037h-1.175a.124.124 0 0 1-.092-.037.134.134 0 0 1-.027-.083v-4.948c0-.037.009-.067.027-.092a.148.148 0 0 1 .092-.027h1.175c.037 0 .068.009.092.027a.124.124 0 0 1 .037.092v.349c0 .025.006.04.018.046.012.006.021.003.028-.01.275-.391.685-.587 1.23-.587Zm5.802 1.1c0 .031-.012.059-.037.084a.114.114 0 0 1-.083.036h-.973c-.03 0-.046.015-.046.046v2.148c0 .22.043.386.129.496.092.104.239.156.44.156h.34c.03 0 .058.012.083.037a.114.114 0 0 1 .037.082v.964c0 .074-.04.117-.12.129-.287.012-.492.018-.615.018-.557 0-.973-.092-1.248-.275-.276-.184-.416-.533-.423-1.047V51.08c0-.03-.018-.046-.055-.046h-.569a.125.125 0 0 1-.092-.037.135.135 0 0 1-.027-.082v-.9c0-.037.009-.067.027-.092a.149.149 0 0 1 .092-.027h.57c.036 0 .054-.019.054-.055v-1.203c0-.03.013-.058.037-.083a.114.114 0 0 1 .083-.036h1.129c.037 0 .067.012.092.036a.114.114 0 0 1 .036.083v1.203c0 .036.016.055.046.055h.973c.031 0 .059.009.083.027a.124.124 0 0 1 .037.092v.9Zm2.928-1.1c.435 0 .823.076 1.166.229.35.147.618.352.808.615.19.263.285.557.285.881v3.424c0 .031-.013.058-.037.083-.018.024-.046.037-.083.037h-1.184a.114.114 0 0 1-.083-.037.114.114 0 0 1-.036-.083v-.33c0-.025-.006-.04-.019-.046-.012-.006-.024 0-.036.018-.288.374-.744.56-1.368.56-.527 0-.952-.128-1.276-.385-.319-.257-.478-.634-.478-1.13 0-.52.18-.924.542-1.211.361-.282.878-.422 1.552-.422h1.037c.03 0 .046-.019.046-.056v-.22c0-.22-.068-.395-.202-.523-.135-.123-.337-.184-.606-.184-.208 0-.383.037-.523.11a.533.533 0 0 0-.267.313c-.018.073-.06.107-.128.1l-1.221-.156c-.08-.018-.116-.049-.11-.091a1.3 1.3 0 0 1 .34-.772c.195-.226.455-.404.78-.532.33-.129.697-.193 1.101-.193Zm-.202 4.286c.288 0 .533-.076.735-.23a.715.715 0 0 0 .303-.596v-.358c0-.037-.016-.055-.046-.055h-.735c-.3 0-.535.058-.707.175a.542.542 0 0 0-.257.486c0 .178.065.318.193.422.129.104.3.156.514.156Zm8.06-2.882c.13.349.194.765.194 1.248 0 .465-.059.872-.175 1.221-.153.46-.4.82-.744 1.084a1.919 1.919 0 0 1-1.202.394c-.496 0-.885-.186-1.166-.56-.012-.012-.025-.015-.037-.009-.018 0-.027.012-.027.037v.33c0 .031-.01.058-.028.083a.125.125 0 0 1-.092.037h-1.175a.125.125 0 0 1-.092-.037.114.114 0 0 1-.036-.083v-6.83c0-.03.012-.058.036-.082a.125.125 0 0 1 .092-.037h1.175c.037 0 .068.012.092.037a.134.134 0 0 1 .028.082V50.3c0 .018.009.03.027.037.012.006.025 0 .037-.019.263-.337.636-.505 1.12-.505.49 0 .903.126 1.24.377.33.25.575.593.734 1.028Zm-1.496 2.286c.141-.251.211-.588.211-1.01 0-.46-.082-.814-.247-1.065a.783.783 0 0 0-.716-.395c-.294 0-.518.132-.67.395-.147.257-.221.609-.221 1.056 0 .453.064.792.193 1.019.165.294.404.44.716.44.324 0 .569-.146.734-.44Zm2.736 1.579c-.037 0-.064-.013-.083-.037a.114.114 0 0 1-.036-.083v-6.83c0-.03.012-.058.036-.082.019-.025.046-.037.083-.037h1.184c.03 0 .058.012.083.037a.114.114 0 0 1 .037.082v6.83c0 .031-.013.058-.037.083a.114.114 0 0 1-.083.037h-1.184Zm6.94-3.13c.037.256.05.544.037.862-.006.08-.049.12-.129.12h-3.12c-.044 0-.059.015-.047.045.025.135.065.27.12.404.171.38.526.57 1.065.57a1.22 1.22 0 0 0 1.019-.524c.03-.043.06-.064.091-.064.019 0 .043.012.074.037l.725.725c.037.03.055.058.055.083 0 .018-.015.045-.046.082-.22.276-.505.49-.853.643-.356.153-.741.23-1.157.23-.576 0-1.065-.132-1.47-.395a2.22 2.22 0 0 1-.862-1.102c-.14-.337-.211-.777-.211-1.322 0-.373.049-.7.147-.982a2.25 2.25 0 0 1 .817-1.139c.385-.281.844-.422 1.377-.422.673 0 1.215.196 1.625.588.404.385.651.905.743 1.56Zm-2.359-.919c-.422 0-.7.2-.835.597a3.728 3.728 0 0 0-.074.321c0 .037.019.055.055.055h1.744c.043 0 .056-.018.037-.055-.03-.196-.046-.29-.046-.284a.866.866 0 0 0-.321-.469.908.908 0 0 0-.56-.165Zm-36.52-13.036c.037-.055.083-.083.138-.083h1.185c.036 0 .067.013.091.037a.134.134 0 0 1 .028.083v6.83c0 .03-.01.058-.028.083a.124.124 0 0 1-.091.036h-1.185a.114.114 0 0 1-.082-.036.114.114 0 0 1-.037-.083v-4.453c0-.03-.006-.045-.018-.045-.013 0-.025.012-.037.036l-1.074 1.671a.148.148 0 0 1-.138.083h-.597a.169.169 0 0 1-.147-.083l-1.064-1.67c-.013-.025-.028-.034-.046-.028-.012 0-.019.015-.019.046v4.443c0 .03-.012.058-.036.083-.019.024-.046.036-.083.036h-1.184a.114.114 0 0 1-.083-.036.114.114 0 0 1-.037-.083v-6.83c0-.03.013-.058.037-.083a.114.114 0 0 1 .083-.037h1.184c.061 0 .107.028.138.083l1.515 2.35c.024.043.045.043.064 0l1.524-2.35Zm4.875 7.069c-.563 0-1.046-.15-1.45-.45a2.193 2.193 0 0 1-.826-1.212 3.422 3.422 0 0 1-.147-1.028c0-.398.049-.753.147-1.065.153-.502.431-.893.835-1.175.404-.281.888-.422 1.45-.422.557 0 1.029.138 1.414.413.392.281.67.673.836 1.175.104.337.156.689.156 1.056 0 .36-.046.7-.138 1.019-.147.526-.422.94-.826 1.24-.398.299-.881.449-1.45.449Zm0-1.221a.83.83 0 0 0 .57-.202c.153-.135.263-.321.33-.56.055-.214.083-.45.083-.707 0-.281-.028-.52-.083-.716a1.13 1.13 0 0 0-.34-.532.855.855 0 0 0-.569-.193.855.855 0 0 0-.569.193 1.073 1.073 0 0 0-.33.532c-.05.165-.074.404-.074.716 0 .306.021.542.064.707.068.239.18.425.34.56.16.135.352.202.578.202Zm5.408 1.212c-.453 0-.848-.065-1.185-.193-.336-.128-.596-.306-.78-.532a1.228 1.228 0 0 1-.275-.78v-.102c0-.037.012-.067.036-.092.019-.018.046-.027.083-.027h1.12c.03 0 .058.01.083.027a.125.125 0 0 1 .036.092v.01c0 .146.083.272.248.376.165.104.373.156.624.156.227 0 .41-.046.551-.138.141-.092.211-.202.211-.33 0-.123-.058-.215-.174-.276a3.088 3.088 0 0 0-.597-.192 6.101 6.101 0 0 1-.752-.23c-.429-.153-.772-.337-1.029-.55-.257-.215-.385-.524-.385-.928 0-.496.196-.89.587-1.184.386-.294.897-.441 1.533-.441.435 0 .811.067 1.13.202.324.14.575.337.752.588.184.244.276.526.276.844 0 .037-.013.064-.037.083a.125.125 0 0 1-.092.037h-1.074a.125.125 0 0 1-.092-.037c-.024-.019-.036-.046-.036-.083 0-.147-.074-.272-.22-.376-.154-.098-.356-.147-.607-.147-.22 0-.4.04-.541.12-.141.079-.211.189-.211.33 0 .134.067.235.202.303.14.067.373.14.697.22a16.973 16.973 0 0 1 .551.147c.477.14.854.321 1.13.541.28.227.422.551.422.974 0 .495-.2.884-.597 1.166-.392.281-.921.422-1.588.422Zm5.967-4.242c0 .031-.012.059-.037.083a.114.114 0 0 1-.083.037h-.973c-.03 0-.045.015-.045.046v2.148c0 .22.045.386.137.496.086.104.23.156.432.156h.34c.03 0 .057.012.082.036a.115.115 0 0 1 .037.083v.964c0 .073-.04.116-.12.129-.281.012-.483.018-.606.018-.563 0-.982-.092-1.257-.276-.276-.183-.416-.532-.423-1.046V40.98c0-.03-.015-.046-.045-.046h-.579c-.037 0-.064-.012-.082-.037a.114.114 0 0 1-.037-.083v-.9c0-.036.012-.066.037-.091.018-.018.045-.027.082-.027h.578c.031 0 .046-.019.046-.056V38.54c0-.03.013-.058.037-.083a.114.114 0 0 1 .083-.037h1.138c.03 0 .058.013.083.037a.115.115 0 0 1 .037.083v1.202c0 .037.015.056.045.056h.974c.03 0 .058.009.082.027a.125.125 0 0 1 .037.092v.9Z"/><path fill="#fff" d="M27.013 63.601a.1.1 0 0 1-.028.074.114.114 0 0 1-.082.036h-3.13c-.031 0-.047.016-.047.046v1.717c0 .03.016.046.046.046h2.103c.03 0 .058.009.082.027a.134.134 0 0 1 .028.083v.698c0 .03-.01.058-.028.082a.134.134 0 0 1-.082.028h-2.103c-.03 0-.046.015-.046.046v1.772c0 .03.016.046.046.046h3.13c.031 0 .059.012.083.036a.1.1 0 0 1 .028.074v.697a.1.1 0 0 1-.028.074.114.114 0 0 1-.082.036h-4.131a.087.087 0 0 1-.074-.036.087.087 0 0 1-.037-.074v-6.206c0-.03.013-.055.037-.073a.087.087 0 0 1 .073-.037h4.132c.03 0 .058.013.082.037a.1.1 0 0 1 .028.073v.698Zm3.231.854c.496 0 .894.147 1.194.44.294.294.44.695.44 1.203v3.011c0 .03-.012.055-.036.074a.087.087 0 0 1-.074.036h-.844a.114.114 0 0 1-.083-.036.1.1 0 0 1-.027-.074v-2.79c0-.282-.08-.511-.24-.689-.158-.171-.37-.257-.633-.257a.853.853 0 0 0-.642.257c-.16.171-.239.398-.239.68v2.8a.1.1 0 0 1-.027.073.114.114 0 0 1-.083.036h-.845a.087.087 0 0 1-.073-.036.087.087 0 0 1-.037-.074v-4.47c0-.031.012-.059.037-.083a.099.099 0 0 1 .073-.028h.845c.03 0 .058.01.082.028a.134.134 0 0 1 .028.082v.294c0 .019.006.03.018.037.013.006.022 0 .028-.018.25-.33.63-.496 1.138-.496Zm5.233.826c0 .03-.012.055-.037.074a.087.087 0 0 1-.073.036h-.936c-.031 0-.046.016-.046.046v2.213c0 .232.049.4.147.505.104.104.266.156.486.156h.276a.1.1 0 0 1 .073.027.114.114 0 0 1 .037.083v.688c0 .068-.037.107-.11.12l-.478.009c-.483 0-.845-.083-1.083-.248-.239-.165-.361-.477-.367-.936v-2.617c0-.03-.016-.046-.046-.046h-.523a.114.114 0 0 1-.083-.036.1.1 0 0 1-.028-.074v-.643c0-.03.01-.058.028-.082a.134.134 0 0 1 .083-.028h.523c.03 0 .046-.015.046-.046v-1.074c0-.03.009-.058.027-.082a.135.135 0 0 1 .083-.028h.799a.1.1 0 0 1 .073.028.114.114 0 0 1 .037.082v1.075c0 .03.015.045.046.045h.936c.03 0 .055.01.073.028a.114.114 0 0 1 .037.082v.643Zm4.81 1.065c.025.153.037.324.037.514l-.009.285c0 .073-.037.11-.11.11h-2.873c-.031 0-.046.015-.046.046.018.202.045.34.082.413.147.44.505.664 1.074.67.416 0 .747-.171.992-.514.024-.037.055-.055.092-.055.024 0 .045.01.064.028l.57.468c.054.042.063.091.027.146-.19.27-.441.478-.753.625-.318.147-.67.22-1.056.22-.477 0-.884-.107-1.22-.321a1.857 1.857 0 0 1-.726-.9c-.14-.33-.211-.79-.211-1.377 0-.355.036-.642.11-.863.122-.428.355-.768.698-1.019.336-.245.743-.367 1.22-.367 1.206 0 1.886.63 2.039 1.891Zm-2.037-.973a.913.913 0 0 0-.57.174.885.885 0 0 0-.312.469 1.592 1.592 0 0 0-.073.403c-.012.031 0 .046.036.046h1.864c.03 0 .046-.015.046-.046a1.736 1.736 0 0 0-.055-.348.9.9 0 0 0-.321-.514 1.004 1.004 0 0 0-.615-.184Zm5.232-.9c.196 0 .368.04.514.12.05.024.068.07.055.137l-.156.827c-.006.073-.049.094-.128.064a1.018 1.018 0 0 0-.321-.046c-.08 0-.141.003-.184.01a.958.958 0 0 0-.643.265.895.895 0 0 0-.257.661v2.598a.1.1 0 0 1-.027.074.114.114 0 0 1-.083.036h-.844a.087.087 0 0 1-.074-.036.087.087 0 0 1-.037-.074v-4.47c0-.031.013-.059.037-.083a.099.099 0 0 1 .074-.028h.844c.03 0 .058.01.083.028a.134.134 0 0 1 .027.082v.414c0 .024.003.036.01.036.012.007.024 0 .036-.018.257-.398.615-.597 1.074-.597Zm5.242 1.267c.11.312.166.695.166 1.148 0 .434-.052.808-.157 1.12-.134.404-.348.719-.642.945-.3.227-.676.34-1.13.34-.434 0-.783-.156-1.046-.468-.012-.013-.024-.016-.037-.01-.012.007-.018.019-.018.037v1.992a.1.1 0 0 1-.027.074.114.114 0 0 1-.083.037h-.845a.087.087 0 0 1-.073-.037.087.087 0 0 1-.037-.074v-6.206c0-.03.012-.058.037-.082a.099.099 0 0 1 .073-.028h.845c.03 0 .058.01.083.028a.134.134 0 0 1 .027.082v.276c0 .018.006.03.018.037.013.006.025 0 .037-.019.27-.318.621-.477 1.056-.477.434 0 .802.113 1.102.34.3.226.517.541.651.945Zm-1.193 2.25c.184-.282.275-.655.275-1.12 0-.447-.073-.8-.22-1.056a.841.841 0 0 0-.78-.45c-.319 0-.557.147-.716.44-.141.24-.212.594-.212 1.065 0 .484.077.851.23 1.102.16.27.389.404.689.404.324 0 .569-.129.734-.386Zm4.572-3.517c.195 0 .367.04.514.12.049.024.067.07.055.137l-.156.827c-.006.073-.05.094-.129.064a1.017 1.017 0 0 0-.321-.046c-.08 0-.14.003-.184.01a.958.958 0 0 0-.642.265.895.895 0 0 0-.257.661v2.598a.1.1 0 0 1-.028.074.114.114 0 0 1-.082.036h-.845a.087.087 0 0 1-.073-.036.087.087 0 0 1-.037-.074v-4.47c0-.031.012-.059.037-.083a.099.099 0 0 1 .073-.028h.845c.03 0 .058.01.082.028a.134.134 0 0 1 .028.082v.414c0 .024.003.036.009.036.012.007.024 0 .037-.018.257-.398.615-.597 1.074-.597Zm1.872-.587a.634.634 0 0 1-.468-.184.634.634 0 0 1-.183-.468c0-.19.06-.346.183-.468a.634.634 0 0 1 .468-.184c.19 0 .346.061.469.184a.634.634 0 0 1 .183.468c0 .19-.06.346-.183.468a.634.634 0 0 1-.469.184Zm-.44 5.333a.087.087 0 0 1-.074-.036.087.087 0 0 1-.036-.074v-4.48c0-.03.012-.055.036-.073a.087.087 0 0 1 .074-.037h.844c.031 0 .059.012.083.037a.1.1 0 0 1 .028.073v4.48a.1.1 0 0 1-.028.074.114.114 0 0 1-.083.036h-.844Zm3.92.056c-.386 0-.725-.059-1.02-.175a1.523 1.523 0 0 1-.67-.468 1.021 1.021 0 0 1-.238-.661v-.083c0-.03.01-.058.027-.082a.135.135 0 0 1 .083-.028h.808c.03 0 .058.01.083.028a.134.134 0 0 1 .027.082v.019c0 .153.083.287.248.404.171.11.386.165.643.165.244 0 .443-.05.596-.147.153-.104.23-.233.23-.386a.35.35 0 0 0-.193-.32 3.142 3.142 0 0 0-.606-.221l-.349-.11a5.168 5.168 0 0 1-.79-.294 1.555 1.555 0 0 1-.54-.432c-.148-.177-.221-.407-.221-.688 0-.429.168-.768.505-1.02.336-.256.78-.385 1.33-.385.374 0 .702.058.983.175.282.122.499.287.652.495.153.215.23.456.23.726 0 .03-.01.058-.028.082a.134.134 0 0 1-.083.028h-.78a.134.134 0 0 1-.083-.028.134.134 0 0 1-.027-.082c0-.16-.077-.291-.23-.395-.159-.11-.373-.165-.642-.165-.239 0-.432.043-.579.128-.153.092-.23.218-.23.377 0 .147.071.257.212.33.147.08.389.165.725.257l.202.055c.325.098.597.196.817.294.22.104.407.245.56.422.153.184.23.42.23.707 0 .435-.172.774-.514 1.02-.343.25-.799.376-1.368.376Zm6.738-2.929c.025.153.037.324.037.514l-.01.285c0 .073-.036.11-.11.11h-2.873c-.03 0-.046.015-.046.046.019.202.046.34.083.413.147.44.505.664 1.074.67.416 0 .747-.171.991-.514.025-.037.056-.055.092-.055.025 0 .046.01.065.028l.569.468c.055.042.064.091.027.146-.19.27-.444.478-.762.625-.312.147-.66.22-1.046.22-.478 0-.885-.107-1.221-.321a1.857 1.857 0 0 1-.726-.9c-.14-.33-.21-.79-.21-1.377 0-.355.036-.642.11-.863.122-.428.351-.768.688-1.019.343-.245.753-.367 1.23-.367 1.206 0 1.885.63 2.038 1.891Zm-2.038-.973a.913.913 0 0 0-.569.174.885.885 0 0 0-.312.469 1.593 1.593 0 0 0-.074.403c-.012.031 0 .046.037.046h1.864c.03 0 .046-.015.046-.046a1.727 1.727 0 0 0-.055-.348.88.88 0 0 0-.331-.514.964.964 0 0 0-.606-.184Z"/><path fill="#252530" d="M31.061 82.237c-.49 0-.918-.08-1.285-.238a1.827 1.827 0 0 1-.844-.67 1.713 1.713 0 0 1-.303-1.01v-.202c0-.03.012-.055.036-.074a.087.087 0 0 1 .074-.036h1.046c.031 0 .058.012.083.036a.1.1 0 0 1 .027.074v.137c0 .245.114.45.34.616.227.17.533.257.918.257.325 0 .566-.068.726-.202a.661.661 0 0 0 .238-.514.498.498 0 0 0-.147-.368 1.19 1.19 0 0 0-.404-.266 9.828 9.828 0 0 0-.798-.321 8.135 8.135 0 0 1-1.047-.432 2.043 2.043 0 0 1-.707-.606c-.196-.25-.293-.563-.293-.936 0-.367.094-.689.284-.964.19-.275.453-.487.79-.633.336-.147.725-.22 1.165-.22.466 0 .879.082 1.24.247.367.165.655.398.863.698.202.294.303.636.303 1.028v.138a.1.1 0 0 1-.028.073.114.114 0 0 1-.083.037H32.2a.087.087 0 0 1-.074-.037.087.087 0 0 1-.036-.073v-.074a.852.852 0 0 0-.313-.66c-.214-.178-.504-.267-.872-.267-.287 0-.514.061-.679.184a.602.602 0 0 0-.239.505.54.54 0 0 0 .147.385c.092.104.233.196.422.276.184.085.472.198.863.34.435.158.775.3 1.02.422.25.122.477.303.679.541.196.245.294.56.294.946 0 .575-.212 1.028-.634 1.359-.422.336-.994.504-1.716.504Zm5.913-6.508c.404 0 .759.082 1.065.247.305.166.544.398.716.698.165.306.247.655.247 1.047 0 .385-.085.725-.257 1.019a1.838 1.838 0 0 1-.743.688c-.312.16-.673.239-1.084.239h-1.303c-.03 0-.046.015-.046.046v2.34c0 .031-.012.056-.037.074a.088.088 0 0 1-.073.037h-1.074a.114.114 0 0 1-.083-.037.1.1 0 0 1-.027-.073v-6.215c0-.03.009-.058.027-.083a.134.134 0 0 1 .083-.027h2.589Zm-.193 2.9c.281 0 .508-.082.68-.247.17-.16.256-.37.256-.634 0-.269-.085-.486-.257-.652-.171-.165-.398-.247-.68-.247h-1.165c-.03 0-.046.015-.046.045v1.69c0 .03.015.046.046.046h1.166Zm6.545 3.535a.13.13 0 0 1-.128-.083l-1.148-2.543c-.012-.024-.03-.036-.055-.036h-.854c-.03 0-.045.015-.045.046v2.506c0 .03-.013.055-.037.073a.087.087 0 0 1-.074.037h-1.074a.114.114 0 0 1-.082-.037.1.1 0 0 1-.028-.073v-6.206c0-.03.01-.055.028-.073a.114.114 0 0 1 .082-.037h2.626c.392 0 .734.08 1.028.238.3.16.53.386.689.68.165.294.247.633.247 1.019 0 .416-.104.77-.312 1.065-.208.3-.498.51-.872.633-.03.012-.04.034-.027.064l1.248 2.599a.14.14 0 0 1 .019.055c0 .049-.034.073-.102.073h-1.129Zm-2.185-5.315c-.03 0-.045.015-.045.045v1.57c0 .03.015.046.045.046h1.203c.257 0 .465-.076.624-.23a.776.776 0 0 0 .248-.596.805.805 0 0 0-.248-.606c-.159-.153-.367-.23-.624-.23h-1.203Zm4.407 5.315a.087.087 0 0 1-.073-.037.087.087 0 0 1-.037-.073v-6.206c0-.03.012-.055.037-.073a.087.087 0 0 1 .073-.037h1.074c.03 0 .058.012.083.037a.099.099 0 0 1 .027.073v6.206a.1.1 0 0 1-.027.073.114.114 0 0 1-.083.037h-1.074Zm5.995-6.316c0-.03.012-.055.037-.073a.087.087 0 0 1 .073-.037h1.074c.03 0 .058.012.083.037a.099.099 0 0 1 .027.073v6.206a.1.1 0 0 1-.027.073.114.114 0 0 1-.083.037H51.69c-.062 0-.104-.025-.129-.073l-2.378-3.93c-.012-.018-.024-.024-.036-.018-.012 0-.019.012-.019.037l.019 3.874a.1.1 0 0 1-.028.073.115.115 0 0 1-.083.037h-1.074a.087.087 0 0 1-.073-.037.087.087 0 0 1-.037-.073v-6.206c0-.03.013-.055.037-.073a.087.087 0 0 1 .073-.037H49c.061 0 .104.024.128.073l2.369 3.911c.012.018.024.025.037.018.012 0 .018-.012.018-.036l-.01-3.856Zm4.672 6.39c-.47 0-.887-.095-1.248-.285a2.04 2.04 0 0 1-.835-.79 2.288 2.288 0 0 1-.303-1.184v-2.056c0-.447.1-.842.303-1.185.196-.342.474-.609.835-.798a2.718 2.718 0 0 1 1.248-.276c.466 0 .879.092 1.24.276.355.183.633.434.835.752.196.313.294.662.294 1.047v.064a.1.1 0 0 1-.028.074.114.114 0 0 1-.082.037H57.4a.087.087 0 0 1-.074-.037.087.087 0 0 1-.036-.074v-.027a.945.945 0 0 0-.294-.707c-.196-.196-.456-.294-.78-.294-.33 0-.594.101-.79.303-.202.208-.303.477-.303.808v2.13c0 .33.107.596.321.798.215.209.487.313.817.313.319 0 .573-.086.762-.257.19-.166.285-.398.285-.698v-.413c0-.03-.015-.046-.046-.046h-1.028a.087.087 0 0 1-.074-.037.087.087 0 0 1-.036-.073v-.845c0-.03.012-.055.036-.073a.087.087 0 0 1 .074-.037h2.24c.03 0 .058.012.083.037a.1.1 0 0 1 .027.073v1.212c0 .465-.098.869-.294 1.212a1.977 1.977 0 0 1-.826.79 2.796 2.796 0 0 1-1.248.265Zm-20.995 7.39c-.012.012-.015.024-.009.036.006.013.018.019.037.019h2.488c.03 0 .058.009.082.027a.135.135 0 0 1 .028.083v.89a.1.1 0 0 1-.028.074.115.115 0 0 1-.082.036h-4.132a.114.114 0 0 1-.082-.036.1.1 0 0 1-.028-.074v-.844c0-.055.019-.101.055-.138.3-.294.606-.612.918-.955.313-.349.508-.566.588-.651.171-.203.346-.395.523-.579.557-.618.836-1.077.836-1.377a.693.693 0 0 0-.23-.532c-.153-.135-.352-.202-.597-.202s-.443.067-.596.202a.714.714 0 0 0-.23.55v.23c0 .03-.012.058-.037.083a.1.1 0 0 1-.073.027h-1.083a.1.1 0 0 1-.074-.027.115.115 0 0 1-.036-.083v-.431c.018-.331.122-.625.312-.882.19-.25.44-.444.752-.578a2.707 2.707 0 0 1 1.065-.202c.435 0 .814.08 1.139.239.318.165.566.385.743.66.172.276.257.582.257.919 0 .257-.064.52-.192.789-.129.27-.322.56-.579.872-.19.239-.395.475-.615.707-.22.233-.548.57-.982 1.01l-.138.138Zm5.61 1.266c-.674 0-1.206-.19-1.598-.569-.392-.373-.588-.884-.588-1.533V86.37c0-.637.196-1.142.588-1.515.392-.373.924-.56 1.597-.56.673 0 1.21.187 1.607.56.392.373.587.878.587 1.515v2.423c0 .649-.195 1.16-.587 1.533-.398.38-.934.57-1.607.57Zm0-1.11c.275 0 .495-.086.66-.257.16-.166.239-.389.239-.67v-2.525c0-.282-.08-.505-.239-.67-.165-.172-.385-.257-.66-.257-.27 0-.484.085-.643.257-.166.165-.248.388-.248.67v2.524c0 .282.082.505.248.67.159.172.373.258.642.258Zm4.764-.156c-.012.012-.015.024-.01.036.007.013.02.019.037.019h2.488c.03 0 .058.009.083.027a.134.134 0 0 1 .027.083v.89a.1.1 0 0 1-.027.074.114.114 0 0 1-.083.036h-4.13a.088.088 0 0 1-.074-.036.087.087 0 0 1-.037-.074v-.844c0-.055.018-.101.055-.138.3-.294.606-.612.918-.955.312-.349.508-.566.588-.651.171-.203.346-.395.523-.579.557-.618.835-1.077.835-1.377a.693.693 0 0 0-.23-.532c-.152-.135-.351-.202-.596-.202s-.444.067-.597.202a.714.714 0 0 0-.23.55v.23c0 .03-.008.058-.027.083a.134.134 0 0 1-.082.027H43.94a.1.1 0 0 1-.073-.027.114.114 0 0 1-.037-.083v-.431c.019-.331.123-.625.312-.882.19-.25.444-.444.762-.578a2.64 2.64 0 0 1 1.056-.202c.435 0 .814.08 1.139.239.318.165.566.385.743.66.171.276.257.582.257.919 0 .257-.064.52-.193.789-.128.27-.321.56-.578.872-.19.239-.395.475-.615.707-.22.233-.548.57-.982 1.01l-.138.138Zm8.014-1.635c.03 0 .059.01.083.028a.135.135 0 0 1 .027.083v.927c0 .03-.009.058-.027.082a.135.135 0 0 1-.083.028h-.394c-.031 0-.046.015-.046.046v1.496a.1.1 0 0 1-.028.074.114.114 0 0 1-.083.036h-1.074a.087.087 0 0 1-.073-.036.087.087 0 0 1-.037-.074v-1.496c0-.03-.015-.046-.046-.046H49.01a.1.1 0 0 1-.074-.028.114.114 0 0 1-.036-.082v-.735c0-.036.009-.082.027-.137l1.653-3.71a.13.13 0 0 1 .128-.082h1.148c.043 0 .073.012.092.037.012.018.009.049-.01.092l-1.533 3.442a.04.04 0 0 0 0 .037c.006.012.016.019.028.019h1.395c.031 0 .046-.016.046-.046v-1.139c0-.03.013-.055.037-.073a.087.087 0 0 1 .073-.037h1.075c.03 0 .058.012.082.037a.099.099 0 0 1 .028.073v1.139c0 .03.015.046.046.046h.394Z"/></svg>