<svg xmlns="http://www.w3.org/2000/svg" width="48" height="48" fill="none"><path fill="#198038" d="M27 3a4.502 4.502 0 0 1 4.244 3h.256a6 6 0 0 1 5.983 5.552L37.5 12v12a1.5 1.5 0 0 1-2.976.27L34.5 24V12a3 3 0 0 0-2.65-2.98L31.5 9l-.02.433A4.5 4.5 0 0 1 27 13.5H15A4.5 4.5 0 0 1 10.5 9a3 3 0 0 0-2.98 2.65L7.5 12v27a3 3 0 0 0 2.65 2.98l.35.02H21a1.5 1.5 0 0 1 .27 2.976L21 45H10.5a6 6 0 0 1-5.984-5.552L4.5 39V12a6 6 0 0 1 5.552-5.984L10.5 6h.256A4.502 4.502 0 0 1 15 3h12Zm15.832 27.252a1.5 1.5 0 0 1 .545 1.842l-.129.238-8 12a1.5 1.5 0 0 1-1.842.545l-.238-.129-6-4a1.5 1.5 0 0 1 1.426-2.625l.238.129 4.75 3.166 7.17-10.75a1.5 1.5 0 0 1 2.08-.416ZM13.5 32.25a2.25 2.25 0 1 1 0 4.5 2.25 2.25 0 0 1 0-4.5ZM30 33a1.5 1.5 0 0 1 .27 2.976L30 36h-9a1.5 1.5 0 0 1-.27-2.976L21 33h9Zm-16.5-8.25a2.25 2.25 0 1 1 0 4.5 2.25 2.25 0 0 1 0-4.5Zm16.5.75a1.5 1.5 0 0 1 .27 2.976L30 28.5h-9a1.5 1.5 0 0 1-.27-2.976L21 25.5h9Zm-16.5-8.25a2.25 2.25 0 1 1 0 4.5 2.25 2.25 0 0 1 0-4.5ZM30 18a1.5 1.5 0 0 1 .27 2.976L30 21h-9a1.5 1.5 0 0 1-.27-2.976L21 18h9ZM27 6H15a1.5 1.5 0 0 0-1.5 1.5V9a1.5 1.5 0 0 0 1.5 1.5h12A1.5 1.5 0 0 0 28.5 9V7.5A1.5 1.5 0 0 0 27 6Z"/></svg>