<svg xmlns="http://www.w3.org/2000/svg" width="80" height="56" fill="none"><path fill="#ED6C47" d="M46.277 30.72 42.091 0h-.313c-15.221.044-27.55 12.382-27.594 27.614v.313l32.093 2.793Z"/><path fill="#FF8F6B" d="M42.404 0h-.312v27.927l13.953 5.586L70 27.927v-.313C69.955 12.383 57.626.044 42.404 0Z"/><path fill="#D35230" d="M69.998 27.927v.307c-.043 15.236-12.375 27.577-27.6 27.62h-.614c-15.225-.043-27.557-12.383-27.6-27.62v-.307h55.814Z"/><path fill="#000" d="M43.486 13.726v29.799a2.57 2.57 0 0 1-1.59 2.36 2.473 2.473 0 0 1-.963.195H20.77c-.39-.447-.768-.922-1.116-1.396a27.401 27.401 0 0 1-5.47-16.45v-.614a27.32 27.32 0 0 1 4.493-15.053c.307-.475.628-.95.977-1.396h21.279a2.574 2.574 0 0 1 2.553 2.555Z" opacity=".1"/><path fill="#000" d="M42.091 15.123V44.92c0 .331-.066.659-.195.964a2.569 2.569 0 0 1-2.358 1.591H22.04a23.903 23.903 0 0 1-1.27-1.396c-.39-.447-.768-.922-1.116-1.396a27.401 27.401 0 0 1-5.47-16.45v-.614a27.32 27.32 0 0 1 4.493-15.053h20.86a2.574 2.574 0 0 1 2.554 2.556Z" opacity=".2"/><path fill="#000" d="M42.091 15.123v27.005a2.574 2.574 0 0 1-2.553 2.556H19.654a27.401 27.401 0 0 1-5.47-16.45v-.614a27.32 27.32 0 0 1 4.493-15.053h20.86a2.574 2.574 0 0 1 2.554 2.556Z" opacity=".2"/><path fill="#000" d="M40.696 15.123v27.005a2.574 2.574 0 0 1-2.554 2.556H19.653a27.401 27.401 0 0 1-5.47-16.45v-.614a27.32 27.32 0 0 1 4.494-15.053h19.465a2.574 2.574 0 0 1 2.554 2.556Z" opacity=".2"/><path fill="url(#a)" d="M12.558 12.567H38.14a2.559 2.559 0 0 1 2.558 2.56v25.6a2.559 2.559 0 0 1-2.558 2.56H12.558A2.559 2.559 0 0 1 10 40.727v-25.6a2.559 2.559 0 0 1 2.558-2.56Z"/><path fill="#fff" d="M25.632 19.394a7.028 7.028 0 0 1 4.658 1.366 4.886 4.886 0 0 1 1.621 3.956 5.507 5.507 0 0 1-.8 2.956 5.345 5.345 0 0 1-2.27 2.008 7.705 7.705 0 0 1-3.414.718H22.19v6.018h-3.314V19.394h6.755Zm-3.444 8.404h2.852a3.702 3.702 0 0 0 2.522-.753 2.792 2.792 0 0 0 .852-2.202c0-1.876-1.089-2.814-3.268-2.814h-2.958v5.769Z"/><defs><linearGradient id="a" x1="15.333" x2="35.387" y1="10.567" y2="45.275" gradientUnits="userSpaceOnUse"><stop stop-color="#CA4C28"/><stop offset=".5" stop-color="#C5401E"/><stop offset="1" stop-color="#B62F14"/></linearGradient></defs></svg>