<svg xmlns="http://www.w3.org/2000/svg" width="32" height="32" fill="none"><path fill="#198038" d="M21 3a1 1 0 0 0-1-1H6l-.2.005A4 4 0 0 0 2 6v10l.007.117A1 1 0 0 0 4 16V6l.005-.15A2 2 0 0 1 6 4h14l.117-.007A1 1 0 0 0 21 3Z"/><path fill="#198038" fill-rule="evenodd" d="M26 6a4 4 0 0 1 4 4v10a4 4 0 0 1-4 4h-7.5l-5.818 5.43A1 1 0 0 1 11 28.699V24h-1a4 4 0 0 1-4-4V10a4 4 0 0 1 4-4h16Zm0 2H10a2 2 0 0 0-1.995 1.85L8 10v10a2 2 0 0 0 1.85 1.994L10 22h1a2 2 0 0 1 1.995 1.85L13 24v2.396l4.135-3.858a2 2 0 0 1 1.197-.53L18.5 22H26a2 2 0 0 0 1.994-1.85L28 20V10a2 2 0 0 0-1.85-1.995L26 8Z" clip-rule="evenodd"/></svg>