<svg xmlns="http://www.w3.org/2000/svg" width="80" height="56" fill="none"><path fill="#FFB800" d="M45.298 0H23.793c-2.072 0-3.787 1.72-3.787 3.8v48.4c0 2.08 1.715 3.8 3.787 3.8h32.866c2.072 0 3.786-1.72 3.786-3.8V15.273L45.298 0Z"/><path fill="url(#a)" d="M46.445 14.197 60.45 28.394V15.273l-14.004-1.076Z"/><path fill="#FFDB75" d="M45.3 11.473c0 2.079 1.716 3.8 3.859 3.8h11.289L45.3 0v11.473Z"/><path fill="#fff" fill-opacity=".2" d="M23.795 0c-2.215 0-3.93 1.936-3.787 4.159 0-2.08 1.715-3.8 3.787-3.8h21.506V0H23.795Z"/><path fill="#D79400" d="M56.661 55.641H23.795c-2.072 0-3.787-1.72-3.787-3.8C19.865 53.992 21.58 56 23.795 56h32.866c2.215 0 3.93-1.936 3.787-4.159 0 2.08-1.715 3.8-3.787 3.8ZM49.088 15.272c-2.072 0-3.787-1.72-3.787-3.8-.143 2.223 1.572 4.159 3.787 4.159h11.36v-.359h-11.36Z"/><path fill="#fff" d="M48.444 25.67H32.011c-1.072 0-1.929.86-1.929 1.935v16.779c0 1.075.857 1.936 1.93 1.936h16.36c1.072 0 1.93-.86 1.93-1.936V27.605c0-1.075-.858-1.935-1.858-1.935Zm-.5 14.77H32.44v-8.89h15.504v8.89Z"/><defs><linearGradient id="a" x1="53.449" x2="53.449" y1="15.406" y2="28.362" gradientUnits="userSpaceOnUse"><stop stop-color="#D79400" stop-opacity=".4"/><stop offset="1" stop-color="#D79400" stop-opacity=".02"/></linearGradient></defs></svg>