<svg xmlns="http://www.w3.org/2000/svg" width="80" height="56" fill="none"><path fill="#7B83EB" d="M41.874 17.544c4.833 0 8.751-3.928 8.751-8.772 0-4.845-3.918-8.772-8.75-8.772-4.834 0-8.752 3.927-8.752 8.772 0 4.845 3.918 8.772 8.751 8.772Z"/><path fill="#000" d="M41.252 10.651h-7.926l.04.174.004.015.042.161c1.196 4.549 5.756 7.343 10.34 6.337v-4.184a2.508 2.508 0 0 0-2.5-2.503Z" opacity=".1"/><path fill="#000" d="M39.374 12.53h-5.407a8.749 8.749 0 0 0 7.906 5.014v-2.508a2.51 2.51 0 0 0-2.5-2.506Z" opacity=".2"/><path fill="#5059C9" d="M61.563 18.168c3.624 0 6.562-2.945 6.562-6.577 0-3.633-2.938-6.577-6.562-6.577-3.623 0-6.561 2.944-6.561 6.577 0 3.632 2.938 6.577 6.561 6.577ZM67.188 20.05h-14.74c-.663 0-1.2.538-1.2 1.203v15.242c-.083 4.546 3.017 8.532 7.438 9.555 5.072 1.066 10.05-2.19 11.114-7.277.132-.634.2-1.28.2-1.926V22.868a2.815 2.815 0 0 0-2.812-2.819Z"/><path fill="#7B83EB" d="M56.876 22.868v17.855c.004 8.3-6.704 15.03-14.984 15.036A14.988 14.988 0 0 1 28.9 48.242a13.48 13.48 0 0 1-.938-1.88 15.364 15.364 0 0 1-.617-1.878 15.479 15.479 0 0 1-.469-3.759V22.868a2.813 2.813 0 0 1 2.805-2.819H54.063a2.813 2.813 0 0 1 2.813 2.812v.007Z"/><path fill="#000" d="M39.374 12.53h-5.407a8.749 8.749 0 0 0 7.906 5.014v-2.508a2.51 2.51 0 0 0-2.5-2.506Z" opacity=".2"/><path fill="#000" d="M43.75 20.05v23.812a2.48 2.48 0 0 1-1.95 2.425 1.853 1.853 0 0 1-.545.076H27.963a15.377 15.377 0 0 1-.617-1.88 15.478 15.478 0 0 1-.469-3.758V22.868a2.813 2.813 0 0 1 2.805-2.819h14.067Z" opacity=".1"/><path fill="#000" d="M41.875 20.05V45.74a1.81 1.81 0 0 1-.076.546 2.478 2.478 0 0 1-2.419 1.955H28.9a13.481 13.481 0 0 1-.937-1.88 15.382 15.382 0 0 1-.617-1.878 15.48 15.48 0 0 1-.469-3.759V22.868a2.813 2.813 0 0 1 2.805-2.819h12.193Z" opacity=".2"/><path fill="#000" d="M41.875 20.05v21.933a2.51 2.51 0 0 1-2.495 2.5H27.344a15.478 15.478 0 0 1-.469-3.758V22.868a2.813 2.813 0 0 1 2.805-2.819h12.195Z" opacity=".2"/><path fill="#000" d="M29.687 20.05a2.813 2.813 0 0 0-2.812 2.81v17.863c.002 1.267.159 2.53.469 3.758h10.162a2.51 2.51 0 0 0 2.495-2.5V20.049H29.687Z" opacity=".2"/><path fill="#4B53BC" d="M12.5 12.53h25c1.38 0 2.5 1.12 2.5 2.506v25.06a2.503 2.503 0 0 1-2.5 2.506h-25c-1.382 0-2.5-1.12-2.5-2.506v-25.06a2.503 2.503 0 0 1 2.5-2.506Z"/><path fill="#fff" d="M32.464 21.882h-5.607v15.073h-3.68V21.882H17.54v-3.704h14.925v3.704Z"/></svg>