<svg xmlns="http://www.w3.org/2000/svg" width="110" height="32" fill="none"><path fill="#201515" d="m25.65 21.91-.015-.049 9.697-8.877V8.706H19.774v4.278h9.293l.015.04-9.602 8.886v4.277h16.008V21.91H25.65ZM45.04 8.3c-1.795 0-3.258.27-4.388.811a5.757 5.757 0 0 0-2.546 2.231 8.122 8.122 0 0 0-1.068 3.227l4.72.664c.171-1.006.513-1.719 1.025-2.139.582-.44 1.3-.661 2.029-.627.958 0 1.653.256 2.084.768.428.512.646 1.222.646 2.157v.466h-4.539c-2.31 0-3.97.512-4.98 1.537-1.008 1.024-1.512 2.377-1.51 4.057 0 1.721.503 3.002 1.51 3.842 1.008.84 2.275 1.258 3.802 1.252 1.894 0 3.35-.651 4.37-1.954a7.257 7.257 0 0 0 1.262-2.692h.172l.65 4.278h4.278V15.346c0-2.239-.59-3.973-1.77-5.203C49.607 8.915 47.691 8.3 45.04 8.3Zm1.495 13.352c-.678.566-1.567.848-2.674.848-.912 0-1.545-.16-1.9-.48a1.566 1.566 0 0 1-.536-1.216 1.598 1.598 0 0 1 .444-1.18 1.648 1.648 0 0 1 1.216-.444h4.465v.294a2.725 2.725 0 0 1-1.015 2.178ZM78.422 8.706h-5.054V26.19h5.054V8.706ZM108.259 8.706c-1.428 0-2.553.504-3.376 1.511-.591.724-1.04 1.794-1.347 3.21h-.149l-.661-4.721H98.41v17.481h5.054v-8.964c0-1.13.265-1.997.794-2.6s1.506-.904 2.93-.904h1.918V8.706h-.847ZM93.395 9.277c-1.18-.702-2.668-1.052-4.464-1.05-2.828 0-5.04.805-6.639 2.415-1.599 1.61-2.397 3.83-2.397 6.66-.041 1.71.332 3.406 1.088 4.94a7.846 7.846 0 0 0 3.1 3.267c1.338.773 2.93 1.16 4.776 1.162 1.597 0 2.93-.245 4.001-.737a6.433 6.433 0 0 0 2.546-2.01c.631-.862 1.1-1.83 1.383-2.86l-4.354-1.219a4.036 4.036 0 0 1-1.024 1.773c-.493.492-1.317.738-2.472.738-1.375 0-2.4-.394-3.074-1.181-.49-.569-.796-1.38-.932-2.434h11.923c.049-.491.074-.904.074-1.237v-1.088a9.71 9.71 0 0 0-.883-4.242 6.64 6.64 0 0 0-2.652-2.897Zm-4.61 3.117c2.05 0 3.21 1.009 3.486 3.025h-7.249a4.164 4.164 0 0 1 .812-1.846c.665-.787 1.648-1.18 2.951-1.179ZM75.95 1.66a2.838 2.838 0 0 0-2.067.794 2.743 2.743 0 0 0-.812 2.049 2.778 2.778 0 0 0 2.88 2.876 2.734 2.734 0 0 0 2.048-.812 2.816 2.816 0 0 0 .792-2.064 2.714 2.714 0 0 0-1.732-2.66 2.717 2.717 0 0 0-1.106-.18l-.003-.003ZM65.51 8.227c-1.721 0-3.104.54-4.149 1.621-.774.801-1.342 1.996-1.703 3.586h-.162l-.66-4.72H54.52v22.499h5.053v-9.267h.184c.154.618.37 1.218.646 1.793a5.09 5.09 0 0 0 2.01 2.249c.915.499 1.946.747 2.987.72 2.116 0 3.727-.825 4.833-2.472 1.107-1.648 1.66-3.948 1.66-6.898 0-2.85-.535-5.081-1.606-6.693-1.07-1.612-2.663-2.418-4.777-2.418Zm.513 12.669c-.59.853-1.512 1.28-2.767 1.28a3.259 3.259 0 0 1-2.71-1.237c-.654-.821-.98-1.946-.978-3.373v-.333c0-1.45.326-2.56.978-3.33.652-.77 1.556-1.15 2.71-1.142 1.278 0 2.206.405 2.784 1.216.58.811.869 1.943.869 3.394.003 1.501-.29 2.676-.882 3.525h-.004Z"/><path fill="#FF4F00" d="M17.526 21.91H.042v4.283h17.484V21.91Z"/></svg>