<svg xmlns="http://www.w3.org/2000/svg" width="80" height="56" fill="none"><circle cx="40" cy="28" r="28" fill="#0E52FF"/><path fill="#fff" d="M29.284 33.013h-6.466a1.15 1.15 0 0 1-1.03-.607 1.12 1.12 0 0 1 .203-1.309l4.498-4.494h-3.222a1.603 1.603 0 0 1-1.605-1.604h5.956c.427 0 .833.225 1.03.608a1.12 1.12 0 0 1-.203 1.308l-4.498 4.494h3.731c.888 0 1.606.717 1.606 1.604Zm25.588-8.134c-.926 0-1.76.4-2.33 1.04a3.123 3.123 0 0 0-2.328-1.04c-1.72 0-3.123 1.467-3.123 3.18v4.954c.888 0 1.605-.717 1.605-1.604v-3.366c0-.827.642-1.528 1.463-1.56a1.526 1.526 0 0 1 1.584 1.521v3.405c0 .887.718 1.604 1.605 1.604v-4.97c0-.827.641-1.528 1.463-1.56a1.526 1.526 0 0 1 1.584 1.521v3.405c0 .887.718 1.604 1.605 1.604V28.06c-.005-1.713-1.408-3.18-3.128-3.18Zm-17.49 4.127a4.132 4.132 0 0 1-8.263 0 4.136 4.136 0 0 1 4.132-4.127 4.136 4.136 0 0 1 4.13 4.127Zm-1.605 0a2.529 2.529 0 0 0-2.526-2.523 2.529 2.529 0 0 0-2.526 2.523 2.529 2.529 0 0 0 2.526 2.524 2.529 2.529 0 0 0 2.526-2.524Zm10.509 0a4.132 4.132 0 0 1-8.263 0 4.136 4.136 0 0 1 4.131-4.127 4.136 4.136 0 0 1 4.132 4.127Zm-1.606 0a2.529 2.529 0 0 0-2.526-2.523 2.529 2.529 0 0 0-2.526 2.523 2.529 2.529 0 0 0 2.526 2.524 2.529 2.529 0 0 0 2.526-2.524Z"/></svg>